<?xml version="1.0" encoding="utf-8"?>
<!-- Generator: Adobe Illustrator 21.1.0, SVG Export Plug-In . SVG Version: 6.00 Build 0)  -->
<svg version="1.1" id="图层_1" xmlns="http://www.w3.org/2000/svg" xmlns:xlink="http://www.w3.org/1999/xlink" x="0px" y="0px"
	 viewBox="0 0 50 50" style="enable-background:new 0 0 50 50;" xml:space="preserve">
<style type="text/css">
	.st0{fill:#009AE1;}
</style>
<path class="st0" d="M35,42.7c0.1,0.6,0.5,1.9,1.1,3.8c-0.2,0.1-0.3,0.2-0.5,0.2c-0.3,0.1-0.6,0.2-0.9,0.3c-0.1,0-0.1,0-0.2-0.2
	c-0.6-1.8-1.1-3.7-1.5-5.7c-0.2-0.8-0.3-1.6-0.4-2.4l0-0.3l-1,0.7c0.1,0.3,0.1,0.7,0.2,1c0.5,2.8,1.1,5.4,2,7.9
	c0.1,0.2,0.1,0.4,0.2,0.6c0.2,0.5,0.4,0.6,0.6,0.6c1.1-0.2,2.1-0.7,3.1-1.4c1.8-1.4,3.4-3.4,4.6-6.4c0.1-0.4,0.2-0.8,0.1-1.2
	c-0.1-0.4-0.3-0.6-0.5-0.6c-0.9,0-1.8-0.4-2.7-1.1c-0.8-0.6-1.5-1.4-2.1-2.7c-0.2-0.4-0.3-0.8-0.4-1.2c-0.3,0.3-0.6,0.6-0.9,1
	c0.2,0.5,0.3,1,0.5,1.4c0.4,1.1,1,1.9,1.6,2.6c0.9,1,1.9,1.6,2.9,1.9l0.1,0c-0.1,0.3-0.3,0.5-0.4,0.7c-0.3,0.4-0.5,0.8-0.8,1.2
	c-0.1,0.1-0.1,0.1-0.2,0.1c-0.5-0.2-1-0.7-1.4-1.4c0,0.4,0.4,1.3,0.8,2.3c-0.3,0.3-0.6,0.5-0.9,0.9c-0.4,0.4-0.7,0.3-1,0
	c-0.6-0.5-1.1-1.3-1.6-2.1C35.1,43,35,42.9,35,42.7L35,42.7z M31.1,37.4l4.9-4.4c-0.1-0.6-0.4-1.1-0.6-1.5c-0.5-0.6-1-0.6-1.5-0.2
	c-0.7,0.6-1.3,1.2-2,1.8c-0.8,0.7-1.1,2.3-0.9,3.9C31.1,37.1,31.1,37.2,31.1,37.4L31.1,37.4z M31.9,31.6l1.5-1.4c0,0,0,0,0-0.1
	L33.4,30c-0.6-2.4-1.3-4.8-1.9-7.2c-0.1-0.4-0.2-0.5-0.5-0.5c-0.2,0.1-0.4,0.2-0.5,0.6c-0.1,0.2-0.1,0.5-0.1,0.7
	c0.5,2.6,1,5.3,1.4,7.9C31.9,31.5,31.9,31.6,31.9,31.6L31.9,31.6z"/>
<path class="st0" d="M14,22.9v6.9L8.8,44.3c0,0-1.6,3,0.9,3.9c0,0,1.7,0.3,2.5-1.6l4.6-10.7c0,0,1-3.1,1.9-2.1l3.2,4.4
	c0,0,0.9,2.3,0.9,8.4c0,0-0.3,1.5,2.1,1.5c0,0,1.7,0.1,1.7-1.4v-5.7c0,0-0.3-6.5-5-13.1v-1.9l0.8-5.4c0,0,0.9-1.3,1.6-0.2
	c0,0-0.2,1.6,2.5,3.4l3.2,1.4c0,0,1.7,0.8,2.1-0.4c0,0,0.6-1.7-0.3-2.1L28.6,21c0,0-3.3-2.7-3.2-6.1c0,0-0.6-3.8-3.4-5
	c0,0-1.4-1.3-3.2-0.6l-7.5,4.2c0,0-1.1,0.8-1.1,1.7v9c0,0-0.2,1.7,0.8,1.7c0,0,1.7-0.7,1.7-1.2l0.1-6.8c0,0,0.2-0.6,1.4-1.5l1.3-1.2
	c0,0,1.4-1.2,1.1,0.4C16.5,15.6,14,20.1,14,22.9L14,22.9z M23.7,8.9c1.8,0,3.2-1.8,3.2-3.9C27,2.8,25.5,1,23.7,1
	c-1.8,0-3.2,1.8-3.2,3.9S21.9,8.9,23.7,8.9z"/>
</svg>
