<?xml version="1.0" encoding="utf-8"?>
<!-- Generator: Adobe Illustrator 18.0.0, SVG Export Plug-In . SVG Version: 6.00 Build 0)  -->
<!DOCTYPE svg PUBLIC "-//W3C//DTD SVG 1.1//EN" "http://www.w3.org/Graphics/SVG/1.1/DTD/svg11.dtd">
<svg version="1.1" id="图层_1" xmlns="http://www.w3.org/2000/svg" xmlns:xlink="http://www.w3.org/1999/xlink" x="0px" y="0px"
	 viewBox="0 0 30 30" enable-background="new 0 0 25 25" xml:space="preserve">
<filter  width="145.5%" height="136.6%" x="-22.7%" y="-13.4%" filterUnits="objectBoundingBox" id="filter-8">
	<feMorphology  result="shadowSpreadOuter1" radius="0.5" operator="dilate" in="SourceAlpha"></feMorphology>
	<feOffset  dy="2" dx="0" result="shadowOffsetOuter1" in="shadowSpreadOuter1"></feOffset>
	<feGaussianBlur  stdDeviation="2" result="shadowBlurOuter1" in="shadowOffsetOuter1"></feGaussianBlur>
	<feComposite  in2="SourceAlpha" result="shadowBlurOuter1" operator="out" in="shadowBlurOuter1"></feComposite>
	<feColorMatrix  type="matrix" values="0 0 0 0 0   0 0 0 0 0   0 0 0 0 0  0 0 0 0.5 0" in="shadowBlurOuter1"></feColorMatrix>
</filter>
<filter  width="111.7%" height="137.0%" x="-5.9%" y="-15.5%" filterUnits="objectBoundingBox" id="filter-6">
	<feMorphology  result="shadowSpreadOuter1" radius="0.5" operator="dilate" in="SourceAlpha"></feMorphology>
	<feOffset  dy="2" dx="0" result="shadowOffsetOuter1" in="shadowSpreadOuter1"></feOffset>
	<feGaussianBlur  stdDeviation="2" result="shadowBlurOuter1" in="shadowOffsetOuter1"></feGaussianBlur>
	<feComposite  in2="SourceAlpha" result="shadowBlurOuter1" operator="out" in="shadowBlurOuter1"></feComposite>
	<feColorMatrix  type="matrix" values="0 0 0 0 0   0 0 0 0 0   0 0 0 0 0  0 0 0 0.5 0" in="shadowBlurOuter1"></feColorMatrix>
</filter>
<filter  width="131.2%" height="138.6%" x="-15.6%" y="-16.0%" filterUnits="objectBoundingBox" id="filter-4">
	<feMorphology  result="shadowSpreadOuter1" radius="0.5" operator="dilate" in="SourceAlpha"></feMorphology>
	<feOffset  dy="2" dx="0" result="shadowOffsetOuter1" in="shadowSpreadOuter1"></feOffset>
	<feGaussianBlur  stdDeviation="2" result="shadowBlurOuter1" in="shadowOffsetOuter1"></feGaussianBlur>
	<feComposite  in2="SourceAlpha" result="shadowBlurOuter1" operator="out" in="shadowBlurOuter1"></feComposite>
	<feColorMatrix  type="matrix" values="0 0 0 0 0   0 0 0 0 0   0 0 0 0 0  0 0 0 0.5 0" in="shadowBlurOuter1"></feColorMatrix>
</filter>
<filter  width="105.4%" height="110.4%" x="-2.7%" y="-3.8%" filterUnits="objectBoundingBox" id="filter-2">
	<feMorphology  result="shadowSpreadOuter1" radius="0.5" operator="dilate" in="SourceAlpha"></feMorphology>
	<feOffset  dy="2" dx="0" result="shadowOffsetOuter1" in="shadowSpreadOuter1"></feOffset>
	<feGaussianBlur  stdDeviation="2" result="shadowBlurOuter1" in="shadowOffsetOuter1"></feGaussianBlur>
	<feComposite  in2="SourceAlpha" result="shadowBlurOuter1" operator="out" in="shadowBlurOuter1"></feComposite>
	<feColorMatrix  type="matrix" values="0 0 0 0 0   0 0 0 0 0   0 0 0 0 0  0 0 0 0.5 0" in="shadowBlurOuter1"></feColorMatrix>
</filter>
<title>扫路车正常</title>
<desc>Created with Sketch.</desc>
<g id="Page-1">
	<g id="扫路车正常">
		<g id="Group-2" transform="translate(-1.000000, -1.000000)">
			<g id="外框">
				<g id="Group" transform="translate(0.627376, 0.679389)">
					<path id="Combined-Shape" fill="#1296db" d="M12.9,25.3C6,25.3,0.4,19.7,0.4,12.8C0.4,5.9,6,0.3,12.9,0.3
						c6.9,0,12.5,5.6,12.5,12.5C25.3,19.7,19.7,25.3,12.9,25.3z M12.8,22.1c5.2,0,9.3-4.2,9.3-9.3S18,3.6,12.8,3.6s-9.3,4.2-9.3,9.3
						S7.7,22.1,12.8,22.1z"/>
				</g>
			</g>
			<g id="扫路车_1_" transform="translate(98.000000, 166.000000)">
				<g id="Shape">
					<g filter="url(#filter-2)">
						<path id="path-1_2_" d="M-79.5-151.2c1,0,1.4,1,1.4,1c0.7,0,1,0.1,1-0.3v-1h-11c-0.1,0-0.3-0.1-0.3-0.3l0,0v-3.4h-1.1
							c-0.2,0-0.5,0.1-0.6,0.3l-1.5,1.9c-0.1,0.1-0.2,0.4-0.2,0.6v1.9c0,0.2,0.2,0.3,0.4,0.3h1.3c0.2-0.5,0.8-0.9,1.4-0.9
							c0.6,0,1.2,0.4,1.4,0.9h6.5C-81-150.2-80.9-151.2-79.5-151.2z M-91.2-152.3L-91.2-152.3c0-0.2,0.1-0.5,0.2-0.6l1.2-1.5
							c0.1-0.1,0.3-0.3,0.5-0.3c0.2,0,0.3,0.1,0.3,0.3v2.1c0,0.2-0.2,0.3-0.4,0.3h-1.5c-0.1,0-0.2,0-0.3-0.1
							C-91.2-152.1-91.2-152.2-91.2-152.3z M-90-149.8c0,0.6,0.5,1,1.1,1c0.6,0,1.1-0.5,1.1-1c0-0.6-0.5-1-1.1-1
							C-89.5-150.8-90-150.3-90-149.8z M-89.7-149.8c0-0.4,0.3-0.7,0.8-0.7c0.4,0,0.8,0.3,0.8,0.7c0,0.4-0.3,0.7-0.8,0.7
							C-89.3-149.1-89.7-149.4-89.7-149.8z M-87.6-151.7h9.7c0.3,0,0.5-0.1,0.5-0.3v-3.9c0-0.2-0.2-0.3-0.5-0.3h-9.7
							c-0.3,0-0.5,0.1-0.5,0.3v4C-88.1-151.9-87.8-151.7-87.6-151.7z"/>
					</g>
					<g>
						<path id="path-1_1_" fill="#1296db" d="M-79.5-151.2c1,0,1.4,1,1.4,1c0.7,0,1,0.1,1-0.3v-1h-11c-0.1,0-0.3-0.1-0.3-0.3l0,0
							v-3.4h-1.1c-0.2,0-0.5,0.1-0.6,0.3l-1.5,1.9c-0.1,0.1-0.2,0.4-0.2,0.6v1.9c0,0.2,0.2,0.3,0.4,0.3h1.3c0.2-0.5,0.8-0.9,1.4-0.9
							c0.6,0,1.2,0.4,1.4,0.9h6.5C-81-150.2-80.9-151.2-79.5-151.2z M-91.2-152.3L-91.2-152.3c0-0.2,0.1-0.5,0.2-0.6l1.2-1.5
							c0.1-0.1,0.3-0.3,0.5-0.3c0.2,0,0.3,0.1,0.3,0.3v2.1c0,0.2-0.2,0.3-0.4,0.3h-1.5c-0.1,0-0.2,0-0.3-0.1
							C-91.2-152.1-91.2-152.2-91.2-152.3z M-90-149.8c0,0.6,0.5,1,1.1,1c0.6,0,1.1-0.5,1.1-1c0-0.6-0.5-1-1.1-1
							C-89.5-150.8-90-150.3-90-149.8z M-89.7-149.8c0-0.4,0.3-0.7,0.8-0.7c0.4,0,0.8,0.3,0.8,0.7c0,0.4-0.3,0.7-0.8,0.7
							C-89.3-149.1-89.7-149.4-89.7-149.8z M-87.6-151.7h9.7c0.3,0,0.5-0.1,0.5-0.3v-3.9c0-0.2-0.2-0.3-0.5-0.3h-9.7
							c-0.3,0-0.5,0.1-0.5,0.3v4C-88.1-151.9-87.8-151.7-87.6-151.7z"/>
					</g>
				</g>
				<g id="Shape_1_">
					<g filter="url(#filter-4)">
						<path id="path-3_2_" d="M-86-151.2l-1.3,2.2h0.7L-86-151.2z M-86.1-148.9l0.1-2.2l0.3,2.2H-86.1z M-85.3-148.9l-0.7-2.2
							l1.2,2.2H-85.3z"/>
					</g>
					<g>
						<path id="path-3_1_" fill="#1296db" d="M-86-151.2l-1.3,2.2h0.7L-86-151.2z M-86.1-148.9l0.1-2.2l0.3,2.2H-86.1z M-85.3-148.9
							l-0.7-2.2l1.2,2.2H-85.3z"/>
					</g>
				</g>
				<g id="Shape_2_">
					<g filter="url(#filter-6)">
						<path id="path-5_2_" d="M-83.9-151.2l-1.3,2.3h0.7L-83.9-151.2z M-84-148.9l0.1-2.3l0.3,2.3H-84z M-83.2-148.9l-0.7-2.3
							l1.2,2.3H-83.2z M-79.7-148.8c-0.7,0-1.2-0.5-1.2-1.1c0-0.6,0.5-1.1,1.2-1.1c0.7,0,1.2,0.5,1.2,1.1
							C-78.5-149.3-79-148.8-79.7-148.8z M-79.7-150.6c-0.4,0-0.8,0.3-0.8,0.7s0.3,0.7,0.8,0.7c0.4,0,0.8-0.3,0.8-0.7
							S-79.2-150.6-79.7-150.6z"/>
					</g>
					<g>
						<path id="path-5_1_" fill="#1296db" d="M-83.9-151.2l-1.3,2.3h0.7L-83.9-151.2z M-84-148.9l0.1-2.3l0.3,2.3H-84z M-83.2-148.9
							l-0.7-2.3l1.2,2.3H-83.2z M-79.7-148.8c-0.7,0-1.2-0.5-1.2-1.1c0-0.6,0.5-1.1,1.2-1.1c0.7,0,1.2,0.5,1.2,1.1
							C-78.5-149.3-79-148.8-79.7-148.8z M-79.7-150.6c-0.4,0-0.8,0.3-0.8,0.7s0.3,0.7,0.8,0.7c0.4,0,0.8-0.3,0.8-0.7
							S-79.2-150.6-79.7-150.6z"/>
					</g>
				</g>
				<g id="Shape_3_">
					<g filter="url(#filter-8)">
						<path id="path-7_2_" d="M-87.7-153.4h1.7v0.3h-1.7V-153.4z M-87.7-154h1.7v0.3h-1.7V-154z M-87.7-154.7h1.7v0.3h-1.7V-154.7z
							 M-87.7-155.3h1.7v0.3h-1.7V-155.3z"/>
					</g>
					<g>
						<path id="path-7_1_" fill="#FFFFFF" d="M-87.7-153.4h1.7v0.3h-1.7V-153.4z M-87.7-154h1.7v0.3h-1.7V-154z M-87.7-154.7h1.7
							v0.3h-1.7V-154.7z M-87.7-155.3h1.7v0.3h-1.7V-155.3z"/>
					</g>
				</g>
			</g>
		</g>
	</g>
</g>
</svg>
