<?xml version="1.0" encoding="utf-8"?>
<!-- Generator: Adobe Illustrator 21.1.0, SVG Export Plug-In . SVG Version: 6.00 Build 0)  -->
<svg version="1.1" id="图层_1" xmlns="http://www.w3.org/2000/svg" xmlns:xlink="http://www.w3.org/1999/xlink" x="0px" y="0px"
	 viewBox="0 0 50 50" style="enable-background:new 0 0 50 50;" xml:space="preserve">
<path d="M42.1,1.1H8c-1.9,0-3.4,1.5-3.4,3.4l0,0v41c0,1.9,1.5,3.4,3.4,3.4h34.1c1.9,0,3.4-1.5,3.4-3.4v-41C45.5,2.6,44,1.1,42.1,1.1
	z M44.3,44.3c0,1.8-1.5,3.2-3.3,3.2H8.9c-1.8,0-3.2-1.5-3.3-3.2c0,0,0,0,0,0V5.7c0-1.8,1.5-3.3,3.3-3.3h32.2c1.8,0,3.2,1.5,3.3,3.3
	V44.3L44.3,44.3z"/>
<path d="M33.8,27.4v-6.5h-4.2v3.3l-7.5-6.1L6.4,30.8V34l3.6-2.9v16.5h7.9v-8.7h8.5v8.7h7.9V31.2l3.7,2.7v-3.1L33.8,27.4L33.8,27.4z
	 M21,36.2h-3.8v-3.8H21V36.2z M21,30.6h-3.8v-3.8H21V30.6z M27.2,36.2h-3.8v-3.8h3.8V36.2z M27.2,30.6h-3.8v-3.8h3.8V30.6z
	 M37.1,13.1l-3.6,0.6c-0.1-0.2-0.1-0.4-0.2-0.5l9-1.4l-1.5-2.5l-1-0.4l-8.4,1.3l-0.8,0.1l-0.9,0.1l-1.4,0.2l0,1.3l1.5,1.7l0.7-0.1
	l-0.3-2.1l-1.3,0.2l0-0.5l1.9-0.3l0.1,0l1.3,1.6c-0.4,0.2-0.6,1-0.5,1.9c0.2,1,0.7,1.7,1.2,1.7c0.2,0,0.4-0.2,0.5-0.6l0.1,0.8
	l-1.3,1.4l3.5-0.8v1.2h0.6v1.9l5.6,1.9v2.5l2.5,0.6v-7.9l-2.5,0.5v3.1l-4.3-1.2v-1.2h0.6v-1.2l2.3-0.5l1.3-1.3l-0.4-2.7L37.1,13.1
	 M32.5,13.5c0.2,0,0.4,0.3,0.5,0.7c0.1,0.4,0,0.8-0.3,0.8c-0.2,0-0.4-0.3-0.5-0.7C32.2,13.9,32.3,13.5,32.5,13.5z M32.6,17.3
	l-0.5,0.4l-1.6-1l-0.5-2.9l0.6-0.1l0.4,2.6L32.6,17.3z"/>
</svg>
