<?xml version="1.0" encoding="utf-8"?>
<!-- Generator: Adobe Illustrator 18.0.0, SVG Export Plug-In . SVG Version: 6.00 Build 0)  -->
<!DOCTYPE svg PUBLIC "-//W3C//DTD SVG 1.1//EN" "http://www.w3.org/Graphics/SVG/1.1/DTD/svg11.dtd">
<svg version="1.1" id="图层_1" xmlns="http://www.w3.org/2000/svg" xmlns:xlink="http://www.w3.org/1999/xlink" x="0px" y="0px"
	 viewBox="0 0 30 30" enable-background="new 0 0 25 25" xml:space="preserve">
<title>垃圾转运正常</title>
<desc>Created with Sketch.</desc>
<g id="Page-2">
	<g id="垃圾转运正常">
		<g id="Group-2" transform="translate(-1.000000, -1.000000)">
			<g id="外框">
				<g id="Group" transform="translate(0.627376, 0.679389)">
					<path id="Combined-Shape" fill="#1296db" d="M12.9,25.3C6,25.3,0.4,19.7,0.4,12.8C0.4,5.9,6,0.3,12.9,0.3
						c6.9,0,12.5,5.6,12.5,12.5C25.3,19.7,19.7,25.3,12.9,25.3z M12.8,22.1c5.2,0,9.3-4.2,9.3-9.3S18,3.6,12.8,3.6s-9.3,4.2-9.3,9.3
						S7.7,22.1,12.8,22.1z"/>
				</g>
			</g>
			<g id="Group_2_" transform="translate(60.000000, 81.000000)">
				
					<image overflow="visible" opacity="0.75" enable-background="new    " width="754" height="650" id="Bitmap" xlink:href="3C4A9016.png"  transform="matrix(2.576015e-002 0 0 2.542140e-002 -55.8958 -75.7883)">
				</image>
				<g id="Clipped" transform="translate(12.000000, 12.000000)">
					<g id="SVGID_13_">
					</g>
					<defs>
						<filter id="Adobe_OpacityMaskFilter" filterUnits="userSpaceOnUse" x="-66" y="-83.9" width="15.1" height="8.3">
							<feColorMatrix  type="matrix" values="1 0 0 0 0  0 1 0 0 0  0 0 1 0 0  0 0 0 1 0"/>
						</filter>
					</defs>
					<mask maskUnits="userSpaceOnUse" x="-66" y="-83.9" width="15.1" height="8.3" id="mask-2">
						<g filter="url(#Adobe_OpacityMaskFilter)">
							<rect id="path-1" x="-67.2" y="-87.1" fill="#FFFFFF" width="17.4" height="14.6"/>
						</g>
					</mask>
					<g id="Group_1_" mask="url(#mask-2)">
						<g id="Shape" transform="translate(22.475309, 60.875912)">
							<path fill="#1296db" d="M-80.6-138.9c-1.4,0-2.7,0-4,0c-0.3,0-0.3,0-0.3-0.3c0-1.5,0-3,0-4.5c0-0.2,0.1-0.3,0.3-0.3
								c1.3,0,2.6,0,4,0c0.2,0,0.3-0.1,0.2-0.2c0-0.1-0.1-0.2-0.1-0.3c-0.1-0.1,0-0.2,0.1-0.2c0.4,0,0.8,0,1.2,0
								c0.1,0,0.2,0,0.3,0.1c0.2,0.2,0.3,0.4,0.4,0.6c0.3,0.7,0.7,1.4,1,2c0.1,0.2,0.2,0.5,0.4,0.7c0.3,0.6,0.6,1.2,0.9,1.8
								c0,0,0,0.1,0.1,0.1c0.1,0.4,0.1,0.5-0.4,0.5C-78-138.9-79.3-138.9-80.6-138.9z"/>
							<path fill="#1296db" d="M-79.3-138.7c-0.2,0.1-0.4,0.3-0.5,0.4c-0.1,0.2-0.2,0.3-0.2,0.5c0,0.2-0.1,0.2-0.3,0.2
								c-1.2,0-2.4,0-3.6,0c-0.3,0-0.6,0-0.8,0c-0.1,0-0.2,0-0.2-0.2c-0.1-0.8-1-1.3-1.8-1.1c-0.6,0.1-1.1,0.4-1.2,1.1
								c0,0.2-0.1,0.2-0.3,0.2c-0.2,0-0.3-0.1-0.3-0.3c0-0.3,0-0.6,0-0.9c0.1-0.4,0-0.9,0-1.3c0-0.4,0-0.8,0.2-1.1
								c0.1-0.3,0.3-0.6,0.6-0.9c0.1-0.1,0.3-0.2,0.5-0.2c0.5,0,1.1,0,1.6,0c0.3,0,0.3,0,0.3,0.3c0,0.9,0,1.8,0,2.7
								c0,0.4,0,0.4,0.4,0.4c1.7,0,3.5,0,5.2,0C-79.5-138.7-79.4-138.7-79.3-138.7C-79.3-138.7-79.3-138.7-79.3-138.7z M-86.8-140.6
								c0.3,0,0.6,0,0.9,0c0.1,0,0.2-0.1,0.2-0.2c0-0.2,0-0.5,0-0.7c0-0.1,0-0.2-0.2-0.2c-0.4,0-0.8,0-1.2,0c-0.1,0-0.1,0-0.2,0.1
								c-0.2,0.3-0.4,0.5-0.5,0.8c0,0.1,0,0.2,0.2,0.2C-87.4-140.6-87.1-140.6-86.8-140.6z"/>
							<path fill="#1296db" d="M-73.4-140.3c0.1,0.4-0.3,0.5-0.5,0.6c-0.3,0.2-0.7,0.4-1,0.6c-0.2,0.1-0.5,0.2-0.7,0.1
								c-0.1,0-0.1-0.1-0.2-0.1c-0.2-0.3-0.3-0.6-0.5-1c-0.3-0.6-0.6-1.2-0.9-1.8c-0.4-0.7-0.8-1.4-1.1-2.2
								c-0.2-0.3-0.2-0.3,0.2-0.3c0.5-0.1,0.9,0.2,1.3,0.4c0.7,0.3,1.4,0.7,2.1,1c0.2,0.1,0.3,0.3,0.4,0.5c0.2,0.5,0.5,1,0.7,1.5
								C-73.5-140.7-73.4-140.5-73.4-140.3z"/>
							<path fill="#1296db" d="M-86.4-136.5c-0.8,0-1.4-0.5-1.3-1.2c0.1-0.4,0.3-0.7,0.7-0.9c0.6-0.2,1.2-0.1,1.6,0.4
								c0.4,0.4,0.2,1.2-0.4,1.5C-86-136.6-86.2-136.5-86.4-136.5z M-86.4-137.2c0.3,0,0.5-0.2,0.5-0.4c0-0.2-0.2-0.4-0.5-0.4
								c-0.2,0-0.5,0.2-0.5,0.4C-86.9-137.4-86.7-137.2-86.4-137.2z"/>
							<path fill="#1296db" d="M-78.5-136.5c-0.6,0-1.1-0.4-1.2-0.8c-0.1-0.6,0.3-1.2,0.9-1.3c0.7-0.1,1.4,0.1,1.6,1
								c0.1,0.3-0.1,0.6-0.3,0.8C-77.9-136.6-78.2-136.5-78.5-136.5z M-78.1-137.5c0-0.2-0.1-0.4-0.4-0.4c-0.3,0-0.5,0.1-0.5,0.4
								c0,0.3,0.1,0.4,0.4,0.4C-78.3-137.2-78.1-137.3-78.1-137.5z"/>
							<path fill="#1296db" d="M-77.9-138.8c0.5,0,1,0,1.5,0c0.1,0,0.1,0,0.1,0.1c0,0.3,0,0.6,0,0.9c0,0.1-0.1,0.2-0.2,0.2
								c0,0-0.1,0-0.1,0c-0.4,0-0.4,0-0.5-0.4c-0.1-0.3-0.3-0.5-0.6-0.7C-77.7-138.6-77.8-138.7-77.9-138.8z"/>
						</g>
					</g>
				</g>
			</g>
		</g>
	</g>
</g>
</svg>
