<?xml version="1.0" encoding="utf-8"?>
<!-- Generator: Adobe Illustrator 21.1.0, SVG Export Plug-In . SVG Version: 6.00 Build 0)  -->
<svg version="1.1" id="图层_1" xmlns="http://www.w3.org/2000/svg" xmlns:xlink="http://www.w3.org/1999/xlink" x="0px" y="0px"
	 viewBox="0 0 50 50" style="enable-background:new 0 0 50 50;" xml:space="preserve">
<style type="text/css">
	.st0{fill:#2C2C2C;}
</style>
<path class="st0" d="M33.7,6.3V5.8V5c0-1.4-1.2-2.6-2.6-2.6H18.9c-1.4,0-2.6,1.2-2.6,2.6v0.9v0.4H7.8v4h34.4v-4L33.7,6.3L33.7,6.3z"
	/>
<path class="st0" d="M16.5,19.8h4V40h-4C16.5,40,16.5,19.8,16.5,19.8z"/>
<path class="st0" d="M23,19.8h4V40h-4C23,40,23,19.8,23,19.8z"/>
<path class="st0" d="M29.5,19.8h4V40h-4C29.5,40,29.5,19.8,29.5,19.8z"/>
<path class="st0" d="M39.6,16.9v-5.2H10.4v5.2c0,0,0,0,0,0.1v25.9c0,2.5,2,4.6,4.4,4.6h20.4c2.4,0,4.4-2.1,4.4-4.6L39.6,16.9
	C39.6,17,39.6,16.9,39.6,16.9z M35.7,42.8c0,0.3-0.2,0.6-0.4,0.6H14.8c-0.2,0-0.4-0.2-0.4-0.6V17c0-0.3,0.2-0.6,0.4-0.6h20.4
	c0.2,0,0.4,0.2,0.4,0.6V42.8z"/>
</svg>
