<?xml version="1.0" encoding="utf-8"?>
<!-- Generator: Adobe Illustrator 18.0.0, SVG Export Plug-In . SVG Version: 6.00 Build 0)  -->
<!DOCTYPE svg PUBLIC "-//W3C//DTD SVG 1.1//EN" "http://www.w3.org/Graphics/SVG/1.1/DTD/svg11.dtd">
<svg version="1.1" id="图层_1" xmlns="http://www.w3.org/2000/svg" xmlns:xlink="http://www.w3.org/1999/xlink" x="0px" y="0px"
	 viewBox="0 0 30 30" enable-background="new 0 0 25 25" xml:space="preserve">
<title>吸污车正常</title>
<desc>Created with Sketch.</desc>
<g id="Page-5">
	<g id="吸污车正常">
		<g id="Group-2" transform="translate(-1.000000, -1.000000)">
			<g id="外框">
				<g id="Group" transform="translate(0.627376, 0.679389)">
					<path id="Combined-Shape" fill="#1857A1" d="M12.9,25.3C6,25.3,0.4,19.7,0.4,12.8C0.4,5.9,6,0.3,12.9,0.3
						c6.9,0,12.5,5.6,12.5,12.5C25.3,19.7,19.7,25.3,12.9,25.3z M12.8,22.1c5.2,0,9.3-4.2,9.3-9.3S18,3.6,12.8,3.6s-9.3,4.2-9.3,9.3
						S7.7,22.1,12.8,22.1z"/>
				</g>
			</g>
			<g id="Group_1_" transform="translate(82.000000, 135.000000)">
				<path id="Shape" fill="none" d="M-73.1-117.1c-0.9,0-1.9,0-2.8,0c-0.1,0-0.1,0-0.1-0.1c0-3.2,0-6.4,0-9.6c0-0.1,0-0.1,0.1-0.1
					c4.8,0,9.6,0,14.4,0c0.1,0,0.1,0,0.1,0.1c0,3.2,0,6.4,0,9.6c0,0.1,0,0.1-0.1,0.1c-3.8,0-7.6,0-11.4,0c0,0,0.1,0,0.1,0
					c0.2,0,0.4-0.2,0.6-0.3c0.5-0.5,0.3-1.4-0.2-1.7c-0.5-0.3-1.1-0.2-1.5,0.2c-0.4,0.4-0.4,1.3,0.3,1.7
					C-73.4-117.2-73.3-117.2-73.1-117.1z M-67.4-120.5C-67.4-120.5-67.4-120.5-67.4-120.5c0.9,0,1.8,0,2.7,0c0.6,0,1-0.3,1.4-0.6
					c0.4-0.4,0.6-1,0.7-1.6c0-0.9-0.3-1.6-1-2.1c-0.3-0.2-0.7-0.4-1.1-0.4c-1.7,0-3.4,0-5.2,0c-0.4,0-0.7,0.1-1,0.3
					c-1.1,0.6-1.5,2.2-0.8,3.4c0.4,0.7,1,1.1,1.8,1.1C-69.1-120.4-68.3-120.5-67.4-120.5z M-72.6-122.3c0-0.6,0-1.2,0-1.8
					c0-0.1,0-0.1-0.1-0.1c-0.3,0-0.6,0-0.9,0c-0.2,0-0.5,0.1-0.6,0.3c-0.5,0.7-1,1.4-1.5,2.1c-0.2,0.2-0.2,0.5-0.2,0.8
					c0,0.6,0,1.3,0,1.9c0,0.3,0.1,0.5,0.4,0.5c0.3,0,0.7,0,1,0c0.1,0,0.1,0,0.2-0.1c0.1-0.3,0.3-0.6,0.6-0.7c0.8-0.4,1.7-0.1,2,0.7
					c0,0.1,0.1,0.1,0.2,0.1c2,0,4.1,0,6.1,0c0.1,0,0.1,0,0.1-0.1c0.1-0.3,0.2-0.5,0.4-0.7c0.5-0.4,1.3-0.5,1.8-0.1
					c0.3,0.2,0.4,0.5,0.6,0.8c0,0.1,0,0.1,0.1,0.1c0.2,0,0.4,0,0.5,0c0.2,0,0.3-0.1,0.3-0.4c0-0.3,0-0.5,0-0.8c0-0.2,0-0.2-0.2-0.2
					c-3.3,0-6.5,0-9.8,0c-0.2,0-0.4,0-0.7,0c-0.3,0-0.4-0.1-0.4-0.5C-72.6-121.1-72.6-121.7-72.6-122.3z M-62.8-118.4
					c0-0.6-0.5-1.2-1.2-1.2c-0.7,0-1.2,0.6-1.2,1.1c0,0.6,0.5,1.2,1.1,1.2C-63.2-117.3-62.8-117.7-62.8-118.4z M-61.8-122.9
					c-0.1,0-0.2,0-0.3,0c-0.2,0-0.4-0.2-0.4-0.4c0-0.2,0.2-0.4,0.4-0.4c0,0,0.1,0,0.1,0c0.1,0,0.2-0.1,0.2-0.2
					c0-0.1-0.1-0.2-0.2-0.2c-0.2,0-0.4,0-0.7,0c0,0.1,0.1,0,0.1,0c0.2,0,0.3,0,0.5,0c0.1,0,0.1,0,0.1,0.1c0,0.1,0,0.1-0.1,0.1
					c0,0-0.1,0-0.1,0c-0.3,0-0.5,0.2-0.5,0.5C-62.7-123-62.3-122.7-61.8-122.9z M-61.8-123.2c-0.1,0-0.2,0-0.3,0
					c-0.1,0-0.1,0-0.1-0.1c0-0.1,0-0.1,0.1-0.1c0.1,0,0.1,0,0.2,0c0.2,0,0.4-0.2,0.4-0.4c0-0.3-0.1-0.5-0.4-0.5c-0.2,0-0.5,0-0.7,0
					c0,0,0,0,0,0c0,0,0.1,0,0.1,0c0.2,0,0.5,0,0.7,0c0.2,0.1,0.3,0.2,0.3,0.5c0,0.2-0.2,0.4-0.4,0.4c-0.1,0-0.1,0-0.2,0
					c-0.1,0-0.1,0.1-0.2,0.2c0,0.1,0,0.2,0.1,0.2C-62.1-123.2-62-123.2-61.8-123.2z"/>
				<g transform="translate(34.000000, 129.000000)">
					
						<image overflow="visible" opacity="0.75" enable-background="new    " width="167" height="167" id="Bitmap" xlink:href="65682AA2.png"  transform="matrix(2.465805e-002 0 0 2.496060e-002 -108.9007 -249.1192)">
					</image>
					<path id="Shape_1_" fill="#1857A1" d="M-107.1-246.1c-0.2-0.1-0.3-0.1-0.5-0.2c-0.7-0.4-0.7-1.3-0.3-1.7
						c0.4-0.4,0.9-0.5,1.5-0.2c0.5,0.3,0.7,1.2,0.2,1.7c-0.2,0.2-0.4,0.3-0.6,0.3c0,0-0.1,0-0.1,0
						C-107-246.1-107.1-246.1-107.1-246.1z M-107.8-247.3c0,0.4,0.3,0.8,0.8,0.8c0.4,0,0.8-0.5,0.8-0.8c0-0.3-0.4-0.8-0.8-0.8
						C-107.5-248.1-107.8-247.7-107.8-247.3z"/>
				</g>
				<g transform="translate(73.000000, 18.000000)">
					
						<image overflow="visible" opacity="0.75" enable-background="new    " width="454" height="271" id="Bitmap_2_" xlink:href="65682AA6.png"  transform="matrix(2.499104e-002 0 0 2.468687e-002 -145.8549 -143.9799)">
					</image>
					<path id="Shape_2_" fill="#1857A1" d="M-140.4-138.5c-0.9,0-1.7,0-2.6,0c-0.8,0-1.4-0.4-1.8-1.1c-0.6-1.2-0.3-2.7,0.8-3.4
						c0.3-0.2,0.6-0.3,1-0.3c1.7,0,3.4,0,5.2,0c0.4,0,0.8,0.1,1.1,0.4c0.7,0.5,1,1.3,1,2.1c0,0.6-0.2,1.2-0.7,1.6
						c-0.4,0.4-0.8,0.6-1.4,0.6C-138.6-138.5-139.5-138.5-140.4-138.5C-140.4-138.5-140.4-138.5-140.4-138.5z"/>
				</g>
				<g transform="translate(0.000000, 37.000000)">
					
						<image overflow="visible" opacity="0.75" enable-background="new    " width="650" height="296" id="Bitmap_3_" xlink:href="65682AA1.png"  transform="matrix(2.522686e-002 0 0 2.508015e-002 -76.7339 -161.9719)">
					</image>
					<path id="Shape_3_" fill="#1857A1" d="M-72.6-159.3c0,0.6,0,1.2,0,1.7c0,0.3,0.1,0.5,0.4,0.5c0.2,0,0.4,0,0.7,0
						c3.3,0,6.5,0,9.8,0c0.2,0,0.2,0,0.2,0.2c0,0.3,0,0.5,0,0.8c0,0.3-0.1,0.3-0.3,0.4c-0.2,0-0.4,0-0.5,0c-0.1,0-0.1-0.1-0.1-0.1
						c-0.1-0.3-0.3-0.6-0.6-0.8c-0.5-0.4-1.3-0.3-1.8,0.1c-0.2,0.2-0.3,0.4-0.4,0.7c0,0.1-0.1,0.1-0.1,0.1c-2,0-4.1,0-6.1,0
						c-0.1,0-0.1,0-0.2-0.1c-0.4-0.8-1.3-1.1-2-0.7c-0.3,0.2-0.5,0.4-0.6,0.7c0,0.1-0.1,0.1-0.2,0.1c-0.3,0-0.7,0-1,0
						c-0.3,0-0.4-0.1-0.4-0.5c0-0.6,0-1.3,0-1.9c0-0.3,0.1-0.5,0.2-0.8c0.5-0.7,1-1.4,1.5-2.1c0.2-0.2,0.4-0.3,0.6-0.3
						c0.3,0,0.6,0,0.9,0c0.1,0,0.1,0,0.1,0.1C-72.6-160.5-72.6-159.9-72.6-159.3z M-73.2-159.2c0-0.4,0-0.7,0-1.1
						c0-0.3-0.2-0.5-0.4-0.4c-0.2,0.1-0.3,0.1-0.5,0.3c-0.4,0.5-0.7,1-1.1,1.6c-0.1,0.1-0.2,0.3-0.2,0.5c-0.1,0.4,0.1,0.7,0.5,0.7
						c0.4,0,0.8,0,1.2,0c0.3,0,0.4-0.2,0.4-0.4C-73.2-158.5-73.2-158.8-73.2-159.2z"/>
				</g>
				<g transform="translate(207.000000, 126.000000)">
					
						<image overflow="visible" opacity="0.75" enable-background="new    " width="171" height="171" id="Bitmap_4_" xlink:href="65682AA3.png"  transform="matrix(2.467221e-002 0 0 2.467221e-002 -272.8168 -246.3098)">
					</image>
					<path id="Shape_4_" fill="#1857A1" d="M-269.8-244.4c0,0.7-0.5,1.2-1.2,1.2c-0.7,0-1.1-0.6-1.1-1.2c0-0.6,0.5-1.1,1.2-1.1
						C-270.3-245.6-269.8-245.1-269.8-244.4z M-270.2-244.4c0-0.4-0.3-0.8-0.8-0.8c-0.4,0-0.8,0.3-0.8,0.8c0,0.4,0.3,0.8,0.7,0.8
						C-270.5-243.6-270.1-244-270.2-244.4z"/>
				</g>
				<g transform="translate(252.000000, 38.000000)">
					
						<image overflow="visible" opacity="0.75" enable-background="new    " width="113" height="133" id="Bitmap_5_" xlink:href="65682AA0.png"  transform="matrix(2.436889e-002 0 0 2.450336e-002 -315.4438 -162.944)">
					</image>
					<path id="Shape_5_" fill="#1857A1" d="M-313.9-160.9c-0.4,0.2-0.8-0.1-0.8-0.5c0-0.3,0.2-0.5,0.5-0.5c0,0,0.1,0,0.1,0
						c0.1,0,0.1,0,0.1-0.1c0-0.1-0.1-0.1-0.1-0.1c-0.2,0-0.3,0-0.5,0c0,0-0.1,0-0.1,0c0.2,0,0.4-0.1,0.7,0c0.1,0,0.2,0.1,0.2,0.2
						c0,0.1-0.1,0.2-0.2,0.2c0,0-0.1,0-0.1,0c-0.2,0-0.4,0.2-0.4,0.4c0,0.2,0.2,0.4,0.4,0.4C-314.1-160.9-314-160.9-313.9-160.9z"/>
				</g>
				<g transform="translate(252.000000, 32.000000)">
					
						<image overflow="visible" opacity="0.75" enable-background="new    " width="125" height="133" id="Bitmap_6_" xlink:href="65682AAE.png"  transform="matrix(2.425263e-002 0 0 2.431342e-002 -315.4438 -157.2531)">
					</image>
					<path id="Shape_6_" fill="#1857A1" d="M-313.8-155.2c-0.1,0-0.3,0-0.4,0c-0.1,0-0.1-0.1-0.1-0.2c0-0.1,0.1-0.2,0.2-0.2
						c0.1,0,0.1,0,0.2,0c0.2,0,0.3-0.2,0.4-0.4c0-0.2-0.1-0.4-0.3-0.5c-0.2-0.1-0.5,0-0.7,0c0,0-0.1,0-0.1,0c0,0,0,0,0,0
						c0.2,0,0.5,0,0.7,0c0.2,0,0.4,0.3,0.4,0.5c0,0.2-0.2,0.4-0.4,0.4c-0.1,0-0.1,0-0.2,0c-0.1,0-0.1,0.1-0.1,0.1
						c0,0.1,0.1,0.1,0.1,0.1C-314.1-155.3-313.9-155.3-313.8-155.2z"/>
				</g>
				<path id="Shape_7_" fill="none" d="M-73.8-118.3c0-0.4,0.3-0.8,0.7-0.8c0.4,0,0.8,0.4,0.8,0.8c0,0.3-0.3,0.8-0.8,0.8
					C-73.5-117.5-73.8-117.8-73.8-118.3z"/>
				<path id="Shape_8_" fill="none" d="M-73.2-122.2c0,0.4,0,0.7,0,1.1c0,0.3-0.1,0.4-0.4,0.4c-0.4,0-0.8,0-1.2,0
					c-0.4,0-0.6-0.2-0.5-0.7c0-0.2,0.1-0.3,0.2-0.5c0.4-0.5,0.7-1,1.1-1.6c0.1-0.2,0.3-0.3,0.5-0.3c0.2-0.1,0.4,0.1,0.4,0.4
					C-73.2-123-73.2-122.6-73.2-122.2z"/>
				<path id="Shape_9_" fill="none" d="M-63.2-118.4c0,0.4-0.3,0.8-0.8,0.8c-0.4,0-0.7-0.3-0.7-0.8c0-0.4,0.3-0.8,0.8-0.8
					C-63.5-119.2-63.1-118.8-63.2-118.4z"/>
			</g>
		</g>
	</g>
</g>
</svg>
