<?xml version="1.0" encoding="utf-8"?>
<!-- Generator: Adobe Illustrator 18.0.0, SVG Export Plug-In . SVG Version: 6.00 Build 0)  -->
<!DOCTYPE svg PUBLIC "-//W3C//DTD SVG 1.1//EN" "http://www.w3.org/Graphics/SVG/1.1/DTD/svg11.dtd">
<svg version="1.1" id="图层_1" xmlns="http://www.w3.org/2000/svg" xmlns:xlink="http://www.w3.org/1999/xlink" x="0px" y="0px"
	 viewBox="0 0 30 30" enable-background="new 0 0 25 25" xml:space="preserve">
<title>餐厨车正常</title>
<desc>Created with Sketch.</desc>
<g id="Page-4">
	<g id="餐厨车正常">
		<g id="Group-2" transform="translate(-1.000000, -1.000000)">
			<g id="外框">
				<g id="Group" transform="translate(0.627376, 0.679389)">
					<path id="Combined-Shape" fill="#1296db" d="M12.9,25.3C6,25.3,0.4,19.7,0.4,12.8C0.4,5.9,6,0.3,12.9,0.3
						c6.9,0,12.5,5.6,12.5,12.5C25.3,19.7,19.7,25.3,12.9,25.3z M12.8,22.1c5.2,0,9.3-4.2,9.3-9.3S18,3.6,12.8,3.6s-9.3,4.2-9.3,9.3
						S7.7,22.1,12.8,22.1z"/>
				</g>
			</g>
			<g id="Group_1_" transform="translate(86.000000, 142.000000)">
				<path id="Shape" fill="none" d="M-77-124.5c-0.9,0-1.9,0-2.8,0c-0.1,0-0.1,0-0.1-0.1c0-3,0-5.9,0-8.9c0-0.1,0-0.1,0.1-0.1
					c4.7,0,9.4,0,14.1,0c0.1,0,0.1,0,0.1,0.1c0,3,0,5.9,0,8.9c0,0.1,0,0.1-0.1,0.1c-3.7,0-7.4,0-11.1,0c0,0,0.1,0,0.1,0
					c0.6-0.1,1-0.6,0.9-1.3c-0.1-0.5-0.7-0.9-1.2-0.8c-0.5,0.1-0.9,0.5-0.9,1c0,0.5,0.4,1,0.9,1C-77-124.6-77-124.6-77-124.5z
					 M-71-132.3c-1.5,0-3,0-4.6,0c-0.1,0-0.1,0-0.2,0c-0.2,0-0.4,0.1-0.4,0.3c0,1.3,0,2.7,0,4c0,0.1,0.1,0.2,0.2,0.3
					c0.1,0.1,0.2,0.1,0.3,0.1c0.3,0,0.7,0,1,0c0.2,0,0.2,0,0.2-0.2c0-0.9,0-1.8,0-2.6c0-0.1,0-0.1,0.1-0.1c0.1,0,0.1,0,0.1,0.1
					c0,0.1,0,0.3,0,0.4c0,0.8,0,1.5,0,2.3c0,0.1,0,0.2,0.1,0.1c0.1,0,0.1-0.1,0.1-0.1c0-0.9,0-1.8,0-2.7c0-0.1,0-0.1,0.1-0.1
					c0.1,0,0.1,0,0.1,0.1c0,0.3,0,0.7,0,1c0,0.6,0,1.1,0,1.7c0,0.1,0.1,0.2,0.1,0.1c0.1,0,0-0.1,0-0.1c0-0.9,0-1.8,0-2.6
					c0-0.1,0-0.2,0.1-0.2c0.1,0,0.1,0.1,0.1,0.2c0,0.6,0,1.3,0,1.9c0,0.2,0,0.5,0,0.7c0,0,0,0.1,0.1,0.1c0,0,0.1,0,0.1,0
					c0,0,0-0.1,0-0.1c0-0.9,0-1.8,0-2.6c0-0.1,0-0.2,0.2-0.2c0.1,0,0.2,0,0.2,0.2c0,0.9,0,1.7,0,2.6c0,0.2,0,0.2,0.2,0.2
					c2,0,4.1,0,6.1,0c0,0,0.1,0,0.1,0c0.3,0,0.4-0.1,0.4-0.4c0-1.3,0-2.6,0-3.9c0-0.2-0.1-0.3-0.3-0.3c-0.1,0-0.2,0-0.3,0
					C-67.9-132.3-69.4-132.3-71-132.3z M-70.9-127.3c-1.7,0-3.4,0-5.1,0c-0.1,0-0.1,0-0.2,0c-0.2,0-0.3-0.1-0.3-0.3
					c0-0.1,0-0.1,0-0.2c0-1.1,0-2.1,0-3.2c0-0.1,0-0.2-0.1-0.1c-0.3,0-0.6,0-0.9,0c-0.2,0-0.4,0.1-0.5,0.2c-0.1,0.1-0.2,0.2-0.2,0.3
					c-0.4,0.6-0.8,1.1-1.3,1.7c-0.2,0.2-0.2,0.5-0.2,0.7c0,0.6,0,1.2,0,1.8c0,0.3,0.1,0.4,0.4,0.4c0.3,0,0.6,0,1,0
					c0.1,0,0.2,0,0.2-0.1c0.3-0.6,0.7-0.8,1.3-0.8c0.6,0,1,0.3,1.3,0.8c0,0.1,0.1,0.1,0.1,0.1c2,0,4,0,6,0c0.1,0,0.1,0,0.1-0.1
					c0.1-0.4,0.3-0.7,0.7-0.8c0.5-0.2,1-0.2,1.4,0.1c0.2,0.2,0.4,0.4,0.5,0.7c0,0.1,0.1,0.1,0.2,0.1c0.2,0,0.3,0,0.5,0
					c0.2,0,0.3-0.1,0.3-0.3c0-0.2,0-0.5,0-0.7c0-0.2,0-0.2-0.2-0.2C-67.5-127.3-69.2-127.3-70.9-127.3z M-66.9-125.7
					c0-0.6-0.5-1.1-1.1-1.1c-0.6,0-1.1,0.4-1.1,1c0,0.7,0.5,1.1,1.1,1.1C-67.3-124.7-66.9-125.1-66.9-125.7z"/>
				<g transform="translate(35.000000, 118.000000)">
					
						<image overflow="visible" opacity="0.75" enable-background="new    " width="167" height="167" id="Bitmap" xlink:href="D2B7A6A9.png"  transform="matrix(2.387898e-002 0 0 2.325875e-002 -113.6545 -245.3224)">
					</image>
					<path id="Shape_1_" fill="#1296db" d="M-111.9-242.5c0,0-0.1,0-0.1,0c-0.5-0.1-0.9-0.5-0.9-1c0-0.5,0.4-0.9,0.9-1
						c0.5-0.1,1.1,0.3,1.2,0.8c0.1,0.6-0.3,1.1-0.9,1.3c0,0-0.1,0-0.1,0C-111.8-242.5-111.9-242.5-111.9-242.5z M-111.1-243.6
						c0-0.4-0.3-0.7-0.7-0.7c-0.4,0-0.8,0.3-0.8,0.7c0,0.4,0.3,0.7,0.8,0.7C-111.5-242.9-111.1-243.2-111.1-243.6z"/>
				</g>
				<g transform="translate(71.000000, 12.000000)">
					
						<image overflow="visible" opacity="0.75" enable-background="new    " width="500" height="275" id="Bitmap_2_" xlink:href="D2B7A6AB.png"  transform="matrix(2.406526e-002 0 0 2.338686e-002 -147.7767 -144.9458)">
					</image>
					<path id="Shape_2_" fill="#1296db" d="M-142-144.3c1.5,0,3,0,4.6,0c0.1,0,0.2,0,0.3,0c0.2,0.1,0.3,0.2,0.3,0.3
						c0,1.3,0,2.6,0,3.9c0,0.3-0.1,0.4-0.4,0.4c0,0-0.1,0-0.1,0c-2,0-4.1,0-6.1,0c-0.2,0-0.2,0-0.2-0.2c0-0.9,0-1.7,0-2.6
						c0-0.1,0-0.2-0.1-0.2c-0.1,0-0.2,0-0.2,0.2c0,0.9,0,1.8,0,2.6c0,0,0,0.1,0,0.1c0,0-0.1,0-0.1,0c-0.1,0-0.1-0.1-0.1-0.1
						c0-0.2,0-0.5,0-0.7c0-0.6,0-1.3,0-1.9c0-0.1,0-0.2-0.1-0.2c-0.1,0-0.1,0.1-0.1,0.2c0,0.9,0,1.8,0,2.6c0,0,0,0.1,0,0.1
						c-0.1,0-0.1,0-0.1-0.1c0-0.6,0-1.1,0-1.7c0-0.3,0-0.7,0-1c0-0.1,0-0.1-0.1-0.1c-0.1,0-0.1,0-0.1,0.1c0,0.9,0,1.8,0,2.7
						c0,0.1,0,0.1-0.1,0.1c-0.1,0-0.1,0-0.1-0.1c0-0.8,0-1.5,0-2.3c0-0.1,0-0.3,0-0.4c0-0.1,0-0.1-0.1-0.1c-0.1,0-0.1,0-0.1,0.1
						c0,0.9,0,1.8,0,2.6c0,0.2,0,0.2-0.2,0.2c-0.3,0-0.7,0-1,0c-0.1,0-0.2,0-0.3-0.1c-0.1-0.1-0.2-0.1-0.2-0.3c0-1.3,0-2.6,0-4
						c0-0.2,0.1-0.3,0.4-0.3c0.1,0,0.1,0,0.2,0C-145-144.3-143.5-144.3-142-144.3z"/>
				</g>
				<g transform="translate(0.000000, 34.000000)">
					
						<image overflow="visible" opacity="0.75" enable-background="new    " width="663" height="296" id="Bitmap_3_" xlink:href="D2B7A6AE.png"  transform="matrix(2.408657e-002 0 0 2.325079e-002 -80.4921 -165.7698)">
					</image>
					<path id="Shape_3_" fill="#1296db" d="M-70.9-161.3c1.7,0,3.4,0,5.1,0c0.2,0,0.2,0,0.2,0.2c0,0.2,0,0.5,0,0.7
						c0,0.2-0.1,0.3-0.3,0.3c-0.2,0-0.3,0-0.5,0c-0.1,0-0.1-0.1-0.2-0.1c-0.1-0.3-0.3-0.5-0.5-0.7c-0.4-0.3-0.9-0.3-1.4-0.1
						c-0.4,0.1-0.6,0.4-0.7,0.8c0,0.1-0.1,0.1-0.1,0.1c-2,0-4,0-6,0c-0.1,0-0.1,0-0.1-0.1c-0.2-0.5-0.7-0.8-1.3-0.8
						c-0.6,0-1.1,0.3-1.3,0.8c0,0.1-0.1,0.1-0.2,0.1c-0.3,0-0.6,0-1,0c-0.3,0-0.4-0.1-0.4-0.4c0-0.6,0-1.2,0-1.8
						c0-0.3,0.1-0.5,0.2-0.7c0.4-0.5,0.8-1.1,1.3-1.7c0.1-0.1,0.2-0.2,0.2-0.3c0.1-0.1,0.3-0.2,0.5-0.2c0.3,0,0.6,0,0.9,0
						c0.1,0,0.1,0,0.1,0.1c0,1.1,0,2.1,0,3.2c0,0.1,0,0.1,0,0.2c0,0.2,0.1,0.3,0.3,0.3c0.1,0,0.1,0,0.2,0
						C-74.3-161.3-72.6-161.3-70.9-161.3z M-77-163.2c0-0.3,0-0.7,0-1c0-0.3-0.2-0.4-0.5-0.3c-0.1,0-0.2,0.1-0.3,0.2
						c-0.2,0.2-0.3,0.4-0.5,0.6c-0.2,0.3-0.4,0.6-0.6,0.8c-0.1,0.2-0.2,0.4-0.2,0.7c0,0.2,0.1,0.4,0.4,0.4c0.4,0,0.9,0,1.3,0
						c0.3,0,0.4-0.1,0.4-0.4C-77-162.5-77-162.9-77-163.2z"/>
				</g>
				<g transform="translate(203.000000, 115.000000)">
					
						<image overflow="visible" opacity="0.75" enable-background="new    " width="171" height="171" id="Bitmap_4_" xlink:href="D2B7A6AF.png"  transform="matrix(2.391190e-002 0 0 2.289035e-002 -272.8346 -242.5031)">
					</image>
					<path id="Shape_4_" fill="#1296db" d="M-269.9-240.8c0,0.6-0.4,1.1-1.1,1.1c-0.6,0-1.1-0.4-1.1-1.1c0-0.7,0.5-1,1.1-1
						C-270.4-241.8-269.9-241.3-269.9-240.8z M-271-241.5c-0.4,0-0.8,0.4-0.8,0.7c0,0.3,0.3,0.7,0.7,0.7c0.4,0,0.8-0.3,0.8-0.7
						C-270.2-241.2-270.6-241.5-271-241.5z"/>
				</g>
				<path id="Shape_5_" fill="none" d="M-76.2-125.6c0,0.4-0.3,0.7-0.7,0.7c-0.4,0-0.8-0.3-0.8-0.7c0-0.4,0.3-0.7,0.7-0.7
					C-76.5-126.3-76.2-126-76.2-125.6z"/>
				<path id="Shape_6_" fill="none" d="M-77-129.2c0,0.3,0,0.7,0,1c0,0.3-0.1,0.4-0.4,0.4c-0.5,0-0.9,0-1.4,0
					c-0.2,0-0.4-0.2-0.4-0.4c0-0.2,0.1-0.5,0.2-0.7c0.2-0.3,0.4-0.6,0.6-0.8c0.2-0.2,0.3-0.4,0.5-0.6c0.1-0.1,0.2-0.2,0.3-0.2
					c0.3-0.1,0.5,0,0.5,0.3C-77-129.9-77-129.6-77-129.2z"/>
				<path id="Shape_7_" fill="none" d="M-68-126.4c0.4,0,0.8,0.3,0.8,0.7c0,0.4-0.3,0.7-0.8,0.7c-0.4,0-0.8-0.4-0.8-0.7
					C-68.7-126-68.4-126.5-68-126.4z"/>
			</g>
		</g>
	</g>
</g>
</svg>
