<?xml version="1.0" encoding="UTF-8"?>
<svg width="35px" height="35px" viewBox="0 0 475 475" version="1.1" xmlns="http://www.w3.org/2000/svg" xmlns:xlink="http://www.w3.org/1999/xlink">
    <!-- Generator: Sketch 48.1 (47250) - http://www.bohemiancoding.com/sketch -->
    <title>定位监管LEFT</title>
    <desc>Created with Sketch.</desc>
    <defs></defs>
    <g id="圆图标" stroke="none" stroke-width="1" fill="none" fill-rule="evenodd">
        <g id="定位监管" fill="#FFFFFF">
            <g id="垃圾桶">
                <g id="Group">
                    <path d="M237.09673,474.322931 C106.458859,474.322931 0.177003802,368.024305 0.177003802,237.36855 C0.177003802,106.703023 106.458859,0.398534351 237.09673,0.398534351 C367.732654,0.398534351 474.01451,106.703023 474.01451,237.36855 C474.01451,368.02626 367.732654,474.322931 237.09673,474.322931 Z M236.984406,414.049538 C334.844644,414.049538 414.176041,335.117588 414.176041,237.750092 C414.176041,140.382597 334.844644,61.4506462 236.984406,61.4506462 C139.124169,61.4506462 59.7927716,140.382597 59.7927716,237.750092 C59.7927716,335.117588 139.124169,414.049538 236.984406,414.049538 Z" id="Combined-Shape" fill-rule="nonzero"></path>
                    <ellipse id="Oval-path" stroke="#979797" fill-opacity="0.4" cx="236.984406" cy="237.750092" rx="177.191635" ry="176.299446"></ellipse>
                </g>
            </g>
            <g id="fi-marker" transform="translate(146.000000, 105.000000)">
                <g id="Layer_1">
                    <path d="M92,0.3917375 C41.496069,0.3917375 0.589862069,42.53435 0.589862069,94.512575 C0.589862069,115.628938 7.34165517,135.123275 18.748069,150.826213 L77.3813793,255.396763 C77.7217241,256.070938 78.062069,256.741775 78.4802069,257.359213 L78.6098621,257.5895 L78.6455172,257.569475 C81.6405517,261.8348 86.4604828,264.614938 92.0486207,264.614938 C97.0922069,264.614938 101.487517,262.251988 104.511724,258.610775 L104.664069,258.700888 L105.244276,257.666263 C106.1,256.478113 106.858483,255.209862 107.406276,253.81145 L164.85,151.356875 C176.493034,135.560488 183.410138,115.872575 183.410138,94.512575 C183.410138,42.53435 142.503931,0.3917375 92,0.3917375 L92,0.3917375 Z M91.0956552,142.228812 C66.2115862,142.228812 46.0566897,121.466225 46.0566897,95.85425 C46.0566897,70.2456125 66.2115862,49.4796875 91.0956552,49.4796875 C115.979724,49.4796875 136.134621,70.2456125 136.134621,95.85425 C136.134621,121.462887 115.979724,142.228812 91.0956552,142.228812 L91.0956552,142.228812 Z" id="Shape"></path>
                </g>
            </g>
        </g>
    </g>
</svg>