<?xml version="1.0" encoding="UTF-8"?>
<svg width="35px" height="35px" viewBox="0 0 475 475" version="1.1" xmlns="http://www.w3.org/2000/svg" xmlns:xlink="http://www.w3.org/1999/xlink">
    <!-- Generator: Sketch 48.1 (47250) - http://www.bohemiancoding.com/sketch -->
    <title>车辆状况LEFT</title>
    <desc>Created with Sketch.</desc>
    <defs></defs>
    <g id="圆图标" stroke="none" stroke-width="1" fill="none" fill-rule="evenodd">
        <g id="车辆状况" fill="#FFFFFF">
            <g id="人员">
                <path d="M237.09673,474.322931 C106.458859,474.322931 0.177003802,368.024305 0.177003802,237.36855 C0.177003802,106.703023 106.458859,0.398534351 237.09673,0.398534351 C367.732654,0.398534351 474.01451,106.703023 474.01451,237.36855 C474.01451,368.02626 367.732654,474.322931 237.09673,474.322931 Z M236.984406,414.049538 C334.844644,414.049538 414.176041,335.117588 414.176041,237.750092 C414.176041,140.382597 334.844644,61.4506462 236.984406,61.4506462 C139.124169,61.4506462 59.7927716,140.382597 59.7927716,237.750092 C59.7927716,335.117588 139.124169,414.049538 236.984406,414.049538 Z" id="Combined-Shape" fill-rule="nonzero"></path>
                <ellipse id="Oval-path" stroke="#979797" fill-opacity="0.4" cx="236.984406" cy="237.750092" rx="177.191635" ry="176.299446"></ellipse>
            </g>
            <g id="fi-target-two" transform="translate(111.000000, 109.000000)">
                <g id="Layer_1">
                    <path d="M245.240039,121.288318 L225.149359,121.288318 C221.886612,70.9130275 182.230049,30.6402446 132.610311,27.3274618 L132.610311,6.92868502 C132.610311,3.22299694 129.649718,0.21969419 126,0.21969419 C122.350282,0.21969419 119.39234,3.22299694 119.39234,6.92868502 L119.39234,27.3274618 C69.7699515,30.6402446 30.1160388,70.9103364 26.8532913,121.288318 L6.76261165,121.288318 C3.1128932,121.288318 0.154951456,124.294312 0.154951456,128 C0.154951456,131.705688 3.1128932,134.711682 6.76261165,134.711682 L26.8506408,134.711682 C30.1080874,185.095046 69.7646505,225.359755 119.39234,228.669847 L119.39234,249.068624 C119.39234,252.774312 122.352932,255.777615 126.00265,255.777615 C129.652369,255.777615 132.610311,252.774312 132.610311,249.068624 L132.610311,228.669847 C182.23535,225.359755 221.891913,185.092355 225.15201,134.711682 L245.240039,134.711682 C248.889757,134.711682 251.847699,131.705688 251.847699,127.997309 C251.847699,124.291621 248.889757,121.288318 245.240039,121.288318 L245.240039,121.288318 Z M119.389689,201.852722 C84.3714757,198.647584 56.4168058,170.261529 53.2627282,134.711682 L66.4886505,134.711682 C69.5420097,162.925505 91.602,185.323792 119.389689,188.423976 L119.389689,201.852722 L119.389689,201.852722 Z M119.389689,67.5760245 C91.602,70.676208 69.5420097,93.0744954 66.4886505,121.288318 L53.2627282,121.288318 C56.4221068,85.7438532 84.3741262,57.355107 119.387039,54.1472783 L119.387039,67.5760245 L119.389689,67.5760245 Z M132.610311,54.1499694 C167.623223,57.355107 195.575243,85.7438532 198.734621,121.288318 L185.51135,121.288318 C182.45799,93.0718043 160.398,70.6735168 132.610311,67.5760245 L132.610311,54.1499694 L132.610311,54.1499694 Z M132.610311,201.852722 L132.610311,188.426667 C160.398,185.326483 182.45799,162.928196 185.51135,134.714373 L198.734621,134.714373 C195.580544,170.261529 167.625874,198.644893 132.610311,201.852722 L132.610311,201.852722 Z" id="Shape"></path>
                </g>
            </g>
        </g>
    </g>
</svg>