<?xml version="1.0" encoding="UTF-8"?>
<svg width="35px" height="35px" viewBox="0 0 475 475" version="1.1" xmlns="http://www.w3.org/2000/svg" xmlns:xlink="http://www.w3.org/1999/xlink">
    <!-- Generator: Sketch 48.1 (47250) - http://www.bohemiancoding.com/sketch -->
    <title>报警信息LEFT</title>
    <desc>Created with Sketch.</desc>
    <defs></defs>
    <g id="圆图标" stroke="none" stroke-width="1" fill="none" fill-rule="evenodd">
        <g id="报警信息" fill="#FFFFFF">
            <g id="定位监管" transform="translate(-1.000000, -1.000000)">
                <g id="Group" transform="translate(0.627376, 0.679389)">
                    <path d="M237.469354,474.643542 C106.831483,474.643542 0.549627376,368.344916 0.549627376,237.68916 C0.549627376,107.023634 106.831483,0.719145038 237.469354,0.719145038 C368.105278,0.719145038 474.387133,107.023634 474.387133,237.68916 C474.387133,368.34687 368.105278,474.643542 237.469354,474.643542 Z M237.35703,414.370149 C335.217267,414.370149 414.548664,335.438199 414.548664,238.070703 C414.548664,140.703207 335.217267,61.7712568 237.35703,61.7712568 C139.496792,61.7712568 60.1653951,140.703207 60.1653951,238.070703 C60.1653951,335.438199 139.496792,414.370149 237.35703,414.370149 Z" id="Combined-Shape" fill-rule="nonzero"></path>
                    <ellipse id="Oval-path" stroke="#979797" fill-opacity="0.4" cx="237.35703" cy="238.070703" rx="177.191635" ry="176.299446"></ellipse>
                </g>
                <ellipse id="Oval-path" stroke="#979797" fill-opacity="0.4" cx="237.984406" cy="238.750092" rx="177.191635" ry="176.299446"></ellipse>
            </g>
            <g id="fi-alert" transform="translate(123.000000, 100.000000)">
                <g id="Layer_1">
                    <path d="M226.763026,218.105684 L226.77946,218.092858 L226.398744,217.32326 C226.212495,216.912808 226.031723,216.499149 225.807129,216.120763 L122.575687,6.78051681 C120.902182,3.22433322 117.711292,0.784066579 113.994522,0.784066579 C109.968249,0.784066579 106.514419,3.62837212 104.997035,7.68800099 L104.986079,7.68158767 L2.55715325,215.396058 L2.65575584,215.463398 C1.27258052,217.445113 0.409807792,219.943099 0.409807792,222.700825 C0.409807792,229.056421 4.81131818,234.212727 10.2372,234.212727 L10.2372,234.212727 L217.760061,234.212727 L217.760061,234.212727 C223.188682,234.212727 227.590192,229.059628 227.590192,222.704032 C227.590192,221.065429 227.288906,219.516614 226.763026,218.105684 L226.763026,218.105684 Z M114.095864,212.471586 C106.22409,212.471586 99.8505273,205.23416 99.8505273,196.021431 C99.8505273,186.805497 106.221351,179.34681 114.095864,179.34681 C121.773171,179.34681 128.146734,186.80229 128.146734,196.021431 C128.149473,205.23416 121.773171,212.471586 114.095864,212.471586 L114.095864,212.471586 Z M128.146734,66.9951384 L128.146734,157.74035 L128.141256,157.74035 C128.141256,157.756383 128.146734,157.772416 128.146734,157.791656 C128.146734,161.553066 125.544721,164.506398 122.411349,164.506398 C122.397655,164.506398 122.386699,164.503191 122.373004,164.503191 L122.373004,164.506398 L105.684514,164.506398 C102.468974,164.506398 99.8697,161.553066 99.8697,157.791656 C99.8697,157.775623 99.8751779,157.75959 99.8751779,157.74035 L99.8697,157.74035 L99.8697,67.2388444 C99.866961,67.1554713 99.8477883,67.0753049 99.8477883,66.9919318 C99.8477883,63.4100949 102.21699,60.5914426 105.147678,60.3284967 L105.147678,60.2771902 L122.370265,60.2771902 L122.370265,60.2803968 C125.517331,60.3028434 128.05087,63.156769 128.1303,66.8187722 L128.143995,66.8187722 L128.143995,66.9887251 L128.143995,66.9951384 L128.146734,66.9951384 L128.146734,66.9951384 Z" id="Shape"></path>
                </g>
            </g>
        </g>
    </g>
</svg>