<?xml version="1.0" encoding="UTF-8"?>
<svg width="35px" height="35px" viewBox="0 0 475 475" version="1.1" xmlns="http://www.w3.org/2000/svg" xmlns:xlink="http://www.w3.org/1999/xlink">
    <!-- Generator: Sketch 48.1 (47250) - http://www.bohemiancoding.com/sketch -->
    <title>垃圾填埋场LEFT</title>
    <desc>Created with Sketch.</desc>
    <defs></defs>
    <g id="圆图标" stroke="none" stroke-width="1" fill="none" fill-rule="evenodd">
        <g id="垃圾填埋场" fill="#FFFFFF">
            <g id="垃圾桶">
                <g id="Group">
                    <path d="M237.09673,474.322931 C106.458859,474.322931 0.177003802,368.024305 0.177003802,237.36855 C0.177003802,106.703023 106.458859,0.398534351 237.09673,0.398534351 C367.732654,0.398534351 474.01451,106.703023 474.01451,237.36855 C474.01451,368.02626 367.732654,474.322931 237.09673,474.322931 Z M236.984406,414.049538 C334.844644,414.049538 414.176041,335.117588 414.176041,237.750092 C414.176041,140.382597 334.844644,61.4506462 236.984406,61.4506462 C139.124169,61.4506462 59.7927716,140.382597 59.7927716,237.750092 C59.7927716,335.117588 139.124169,414.049538 236.984406,414.049538 Z" id="Combined-Shape" fill-rule="nonzero"></path>
                    <ellipse id="Oval-path" stroke="#979797" fill-opacity="0.4" cx="236.984406" cy="237.750092" rx="177.191635" ry="176.299446"></ellipse>
                </g>
            </g>
            <g id="fi-trees" transform="translate(171.000000, 162.000000)">
                <g id="Layer_1">
                    <path d="M143.239512,140.686974 L143.278558,140.660461 L130.911,114.928421 L135.778233,114.928421 L135.778233,114.901908 C136.793442,114.901908 137.616814,113.914803 137.616814,112.695197 C137.616814,112.317895 137.516651,111.979342 137.37914,111.669342 L137.411395,111.646908 L125.974163,87.8482895 L128.756651,87.8482895 L128.756651,87.8299342 C129.481558,87.8299342 130.068953,87.1222368 130.068953,86.2554605 C130.068953,85.98625 129.997651,85.7455921 129.899186,85.5232895 L129.921256,85.5069737 L113.280651,50.87875 L113.263674,50.8909868 C112.896977,49.9895395 112.143209,49.3532237 111.250233,49.3532237 C110.360651,49.3532237 109.606884,49.9875 109.238488,50.8869079 L109.23,50.8807895 L92.5893953,85.5069737 L92.5927907,85.5090132 C92.4892326,85.7333553 92.4145349,85.9801316 92.4145349,86.2554605 C92.4145349,87.1242763 93.0019302,87.8299342 93.7268372,87.8299342 L93.7268372,87.8482895 L96.5466744,87.8482895 L85.1094419,111.646908 L85.1145349,111.648947 C84.9702326,111.965066 84.8649767,112.309737 84.8649767,112.695197 C84.8649767,113.914803 85.6883488,114.901908 86.7035581,114.901908 L86.7035581,114.928421 L91.6166279,114.928421 L88.0515116,122.348026 L73.7927442,92.6777632 L80.6615349,92.6777632 L80.6615349,92.6410526 C82.0943721,92.6410526 83.2555814,91.2440132 83.2555814,89.5247368 C83.2555814,88.9944737 83.1350465,88.5009211 82.939814,88.0624342 L82.9652791,88.0440789 L66.8254884,54.4600658 L70.7522093,54.4600658 L70.7522093,54.4355921 C71.775907,54.4355921 72.6043721,53.4403289 72.6043721,52.2084868 C72.6043721,51.8291447 72.5042093,51.4885526 72.365,51.1765132 L72.3972558,51.1540789 L48.9116279,2.29440789 L48.9031395,2.30052632 C48.3853488,1.02585526 47.3073256,0.138684211 46.0459535,0.138684211 C44.7591163,0.138684211 43.6556279,1.06052632 43.1531163,2.38210526 L19.7133256,51.1540789 L19.7184186,51.1581579 C19.5724186,51.4763158 19.4671628,51.8230263 19.4671628,52.2105263 C19.4671628,53.4423684 20.2956279,54.4376316 21.3176279,54.4376316 L21.3176279,54.4621053 L25.2986744,54.4621053 L9.34902326,87.6484211 C9.01797674,88.1725658 8.81255814,88.8170395 8.81255814,89.5247368 C8.81255814,91.2460526 9.97546512,92.6410526 11.4066047,92.6410526 L11.4066047,92.6777632 L18.339907,92.6777632 L1.12548837,128.501118 C0.718046512,129.141513 0.468488372,129.932829 0.468488372,130.801645 C0.468488372,132.906382 1.89113953,134.615461 3.64483721,134.615461 L3.64483721,134.658289 L37.2231395,134.658289 L37.2231395,151.851053 C37.2231395,153.513224 38.3453023,154.863355 39.728907,154.863355 L52.2628372,154.863355 C53.6464419,154.863355 54.7703023,153.515263 54.7703023,151.851053 L54.7703023,134.658289 L82.136814,134.658289 L79.2524651,140.660461 L79.2575581,140.664539 C79.081,141.05 78.9519767,141.472171 78.9519767,141.945329 C78.9519767,143.438224 79.9586977,144.647632 81.2013953,144.647632 L81.2013953,144.678224 L104.996,144.678224 L104.996,152.715789 C104.996,153.894605 105.792209,154.849079 106.771767,154.849079 L115.654,154.849079 C116.635256,154.849079 117.429767,153.894605 117.429767,152.715789 L117.429767,144.678224 L141.282093,144.678224 L141.282093,144.647632 C142.524791,144.647632 143.533209,143.438224 143.533209,141.945329 C143.531512,141.482368 143.410977,141.066316 143.239512,140.686974 L143.239512,140.686974 Z" id="Shape"></path>
                </g>
            </g>
        </g>
    </g>
</svg>