<?xml version="1.0" encoding="UTF-8"?>
<svg width="35px" height="35px" viewBox="0 0 475 475" version="1.1" xmlns="http://www.w3.org/2000/svg" xmlns:xlink="http://www.w3.org/1999/xlink">
    <!-- Generator: Sketch 48.1 (47250) - http://www.bohemiancoding.com/sketch -->
    <title>油量统计LEFT</title>
    <desc>Created with Sketch.</desc>
    <defs></defs>
    <g id="圆图标" stroke="none" stroke-width="1" fill="none" fill-rule="evenodd">
        <g id="油量统计" fill="#FFFFFF">
            <g id="车辆">
                <path d="M237.09673,474.322931 C106.458859,474.322931 0.177003802,368.024305 0.177003802,237.36855 C0.177003802,106.703023 106.458859,0.398534351 237.09673,0.398534351 C367.732654,0.398534351 474.01451,106.703023 474.01451,237.36855 C474.01451,368.02626 367.732654,474.322931 237.09673,474.322931 Z M236.984406,414.049538 C334.844644,414.049538 414.176041,335.117588 414.176041,237.750092 C414.176041,140.382597 334.844644,61.4506462 236.984406,61.4506462 C139.124169,61.4506462 59.7927716,140.382597 59.7927716,237.750092 C59.7927716,335.117588 139.124169,414.049538 236.984406,414.049538 Z" id="Combined-Shape" fill-rule="nonzero"></path>
                <ellipse id="Oval-path" stroke="#979797" fill-opacity="0.4" cx="236.984406" cy="237.750092" rx="177.191635" ry="176.299446"></ellipse>
            </g>
            <g id="fi-paint-bucket" transform="translate(128.000000, 126.000000)">
                <g id="Layer_1">
                    <g id="Group">
                        <path d="M194.661628,105.866595 C194.65907,105.86394 194.653953,105.861286 194.651395,105.858631 L112.565814,20.6673214 L112.563256,20.6673214 L112.563256,20.6673214 C110.046047,18.0550357 105.968372,18.0550357 103.451163,20.6673214 L89.9953488,34.631369 L61.2265116,4.77591667 C58.9165116,2.27247619 55.6855814,0.700857143 52.0913953,0.703511905 C45.0744186,0.700857143 39.3876744,6.62628571 39.3927907,13.9401548 C39.3927907,17.7258452 40.9353488,21.1159762 43.3783721,23.5291548 L72.0372093,53.2757619 L2.25883721,125.687048 L2.25883721,125.687048 C-0.258372093,128.296679 -0.258372093,132.531024 2.25883721,135.14331 L84.352093,220.339929 C86.8693023,222.952214 90.9495349,222.952214 93.464186,220.339929 L93.4667442,220.337274 L194.661628,115.322857 C197.176279,112.710571 197.176279,108.476226 194.661628,105.866595 L194.661628,105.866595 Z M144.256047,130.364738 L33.8518605,130.364738 L108.045581,53.3660238 L163.247674,110.655786 L144.256047,130.364738 L144.256047,130.364738 Z" id="Shape"></path>
                        <path d="M215.070465,174.510774 L199.798372,147.06319 C199.71907,146.909214 199.642326,146.752583 199.547674,146.609226 L199.509302,146.542857 L199.49907,146.548167 C198.726512,145.438476 197.483256,144.716381 196.043023,144.716381 C194.743488,144.716381 193.607674,145.329631 192.83,146.277381 L192.78907,146.253488 L192.63814,146.526929 C192.41814,146.834881 192.223721,147.161417 192.083023,147.522464 L177.156279,174.348833 C174.229767,178.423893 172.477442,183.459976 172.477442,188.93144 C172.477442,202.444179 183.027209,213.400381 196.053256,213.400381 C209.08186,213.400381 219.631628,202.444179 219.631628,188.93144 C219.631628,183.531655 217.925349,178.559286 215.070465,174.510774 L215.070465,174.510774 Z" id="Shape"></path>
                    </g>
                </g>
            </g>
        </g>
    </g>
</svg>