<?xml version="1.0" encoding="UTF-8"?>
<svg width="35px" height="35px" viewBox="0 0 475 475" version="1.1" xmlns="http://www.w3.org/2000/svg" xmlns:xlink="http://www.w3.org/1999/xlink">
    <!-- Generator: Sketch 48.1 (47250) - http://www.bohemiancoding.com/sketch -->
    <title>轨迹回放LEFT</title>
    <desc>Created with Sketch.</desc>
    <defs></defs>
    <g id="圆图标" stroke="none" stroke-width="1" fill="none" fill-rule="evenodd">
        <g id="轨迹回放" fill="#FFFFFF">
            <g id="定位监管" transform="translate(-1.000000, -1.000000)">
                <g id="Group" transform="translate(0.627376, 0.679389)">
                    <path d="M237.469354,474.643542 C106.831483,474.643542 0.549627376,368.344916 0.549627376,237.68916 C0.549627376,107.023634 106.831483,0.719145038 237.469354,0.719145038 C368.105278,0.719145038 474.387133,107.023634 474.387133,237.68916 C474.387133,368.34687 368.105278,474.643542 237.469354,474.643542 Z M237.35703,414.370149 C335.217267,414.370149 414.548664,335.438199 414.548664,238.070703 C414.548664,140.703207 335.217267,61.7712568 237.35703,61.7712568 C139.496792,61.7712568 60.1653951,140.703207 60.1653951,238.070703 C60.1653951,335.438199 139.496792,414.370149 237.35703,414.370149 Z" id="Combined-Shape" fill-rule="nonzero"></path>
                    <ellipse id="Oval-path" stroke="#979797" fill-opacity="0.4" cx="237.35703" cy="238.070703" rx="177.191635" ry="176.299446"></ellipse>
                </g>
                <ellipse id="Oval-path" stroke="#979797" fill-opacity="0.4" cx="237.984406" cy="238.750092" rx="177.191635" ry="176.299446"></ellipse>
            </g>
            <g id="fi-map" transform="translate(130.000000, 115.000000)">
                <g id="Layer_1">
                    <g id="Group">
                        <path d="M214.915536,8.0934 C214.915536,8.04966667 214.928333,8.00866667 214.928333,7.96493333 C214.928333,3.8376 211.798036,0.5002 207.940833,0.494733333 L207.940833,0.494733333 L207.935714,0.494733333 C207.935714,0.494733333 207.935714,0.494733333 207.933155,0.494733333 C207.930595,0.494733333 207.933155,0.494733333 207.930595,0.494733333 L80.8041667,0.494733333 L80.8041667,0.494733333 L80.8041667,0.494733333 L80.7760119,0.494733333 L80.7760119,0.5248 L0.0793452381,86.7040667 L0.0716666667,86.7040667 L0.0716666667,238.035067 L0.0793452381,238.035067 C0.0793452381,238.035067 0.0793452381,238.035067 0.0793452381,238.0378 C0.0793452381,242.156933 3.21988095,245.502533 7.07708333,245.502533 L7.07708333,245.502533 L207.945952,245.502533 L207.945952,245.502533 C211.29125,245.497067 214.081131,242.979667 214.761964,239.625867 L214.915536,239.625867 L214.915536,238.1608 C214.915536,238.1198 214.925774,238.081533 214.925774,238.040533 C214.925774,237.999533 214.915536,237.961267 214.915536,237.920267 L214.915536,8.0934 L214.915536,8.0934 Z M152.64744,27.7105333 L189.430357,27.7105333 L189.430357,94.9423333 L143.069702,45.4307333 L152.64744,27.7105333 L152.64744,27.7105333 Z M80.8041667,94.1715333 L80.8041667,94.1688 C84.6536905,94.1524 87.7711905,90.8177333 87.7711905,86.7068 L87.7711905,86.7040667 L87.7711905,86.7040667 L87.7711905,27.7105333 L137.907143,27.7105333 L68.364881,156.3412 L25.5568452,110.6262 L25.5568452,94.1715333 L80.8041667,94.1715333 L80.8041667,94.1715333 Z M25.5568452,218.289467 L25.5568452,129.907133 L61.7561905,168.564667 L34.8760714,218.289467 L25.5568452,218.289467 L25.5568452,218.289467 Z M49.616369,218.289467 L136.461012,57.6542 L189.432917,114.223267 L189.432917,218.289467 L49.616369,218.289467 L49.616369,218.289467 Z" id="Shape"></path>
                        <path d="M138.291071,110.907733 C121.283036,110.907733 107.510238,125.6322 107.510238,143.781533 C107.510238,151.049467 109.744702,157.746133 113.484167,163.1882 L133.343512,199.921467 C133.46381,200.1784 133.591786,200.429867 133.745357,200.6622 L133.78631,200.736 L133.796548,200.730533 C134.805,202.217467 136.427738,203.1878 138.311548,203.1878 C140.011071,203.1878 141.493036,202.362333 142.511726,201.091333 L142.562917,201.1214 L142.754881,200.7688 C143.046667,200.3506 143.302619,199.902333 143.489464,199.410333 L162.962321,163.390467 C166.78625,157.912867 169.079583,151.139667 169.079583,143.7788 C169.071905,125.6322 155.299107,110.907733 138.291071,110.907733 L138.291071,110.907733 Z M137.986488,160.446667 C129.606607,160.446667 122.81875,153.2006 122.81875,144.251667 C122.81875,135.302733 129.606607,128.048467 137.986488,128.048467 C146.366369,128.048467 153.154226,135.302733 153.154226,144.251667 C153.154226,153.2006 146.366369,160.446667 137.986488,160.446667 L137.986488,160.446667 Z" id="Shape"></path>
                    </g>
                </g>
            </g>
        </g>
    </g>
</svg>