<?xml version="1.0" encoding="UTF-8"?>
<svg width="35px" height="35px" viewBox="0 0 475 475" version="1.1" xmlns="http://www.w3.org/2000/svg" xmlns:xlink="http://www.w3.org/1999/xlink">
    <!-- Generator: Sketch 48.1 (47250) - http://www.bohemiancoding.com/sketch -->
    <title>垃圾云图TOP</title>
    <desc>Created with Sketch.</desc>
    <defs></defs>
    <g id="圆图标" stroke="none" stroke-width="1" fill="none" fill-rule="evenodd">
        <g id="垃圾云图" fill="#FFFFFF">
            <g id="垃圾桶" fill-rule="nonzero">
                <g id="Group">
                    <path d="M237.09673,474.322931 C106.458859,474.322931 0.177003802,368.024305 0.177003802,237.36855 C0.177003802,106.703023 106.458859,0.398534351 237.09673,0.398534351 C367.732654,0.398534351 474.01451,106.703023 474.01451,237.36855 C474.01451,368.02626 367.732654,474.322931 237.09673,474.322931 Z M236.984406,414.049538 C334.844644,414.049538 414.176041,335.117588 414.176041,237.750092 C414.176041,140.382597 334.844644,61.4506462 236.984406,61.4506462 C139.124169,61.4506462 59.7927716,140.382597 59.7927716,237.750092 C59.7927716,335.117588 139.124169,414.049538 236.984406,414.049538 Z" id="Combined-Shape"></path>
                </g>
            </g>
            <g id="fi-trash" transform="translate(171.000000, 156.000000)">
                <g id="Layer_1">
                    <g id="Group">
                        <path d="M121.89725,45.9332821 L12.0985,45.9332821 C9.312625,45.9332821 7.051625,48.1984872 7.051625,51.0139359 L7.051625,157.823282 C7.051625,160.63659 9.312625,162.9125 12.0985,162.9125 L121.89725,162.9125 C124.6895,162.9125 126.944125,160.63659 126.944125,157.823282 L126.944125,51.0117949 C126.944125,48.1984872 124.6895,45.9332821 121.89725,45.9332821 L121.89725,45.9332821 Z" id="Shape"></path>
                        <path d="M128.6335,11.5997949 L86.97925,11.5997949 L86.97925,5.17885897 C86.97925,2.36555128 84.724625,0.0896410256 81.936625,0.0896410256 L52.063375,0.0896410256 C49.275375,0.0896410256 47.0165,2.36555128 47.0165,5.17885897 L47.0165,11.5997949 L5.3665,11.5997949 C2.5785,11.5997949 0.319625,13.867141 0.319625,16.6804487 L0.319625,31.5220385 C0.319625,34.3353462 2.5785,36.6026923 5.3665,36.6026923 L128.6335,36.6026923 C131.42575,36.6026923 133.680375,34.3353462 133.680375,31.5220385 L133.680375,16.6804487 C133.680375,13.865 131.42575,11.5997949 128.6335,11.5997949 L128.6335,11.5997949 Z" id="Shape"></path>
                    </g>
                </g>
            </g>
        </g>
    </g>
</svg>