<?xml version="1.0" encoding="UTF-8"?>
<svg width="35px" height="35px" viewBox="0 0 475 475" version="1.1" xmlns="http://www.w3.org/2000/svg" xmlns:xlink="http://www.w3.org/1999/xlink">
    <!-- Generator: Sketch 48.1 (47250) - http://www.bohemiancoding.com/sketch -->
    <title>报表输出TOP</title>
    <desc>Created with Sketch.</desc>
    <defs></defs>
    <g id="圆图标" stroke="none" stroke-width="1" fill="none" fill-rule="evenodd">
        <g id="报表输出" fill="#FFFFFF">
            <g id="人员" fill-rule="nonzero">
                <path d="M237.09673,474.322931 C106.458859,474.322931 0.177003802,368.024305 0.177003802,237.36855 C0.177003802,106.703023 106.458859,0.398534351 237.09673,0.398534351 C367.732654,0.398534351 474.01451,106.703023 474.01451,237.36855 C474.01451,368.02626 367.732654,474.322931 237.09673,474.322931 Z M236.984406,414.049538 C334.844644,414.049538 414.176041,335.117588 414.176041,237.750092 C414.176041,140.382597 334.844644,61.4506462 236.984406,61.4506462 C139.124169,61.4506462 59.7927716,140.382597 59.7927716,237.750092 C59.7927716,335.117588 139.124169,414.049538 236.984406,414.049538 Z" id="Combined-Shape"></path>
            </g>
            <g id="fi-page-filled" transform="translate(155.000000, 139.000000)">
                <g id="Layer_1">
                    <g id="Group">
                        <path d="M4.73648224,69.9510059 L75.7837158,69.9510059 C78.4011013,69.9510059 80.5174602,68.1100647 80.5174602,65.8362408 L80.5174602,4.11476505 C80.5174602,1.84094113 78.3983635,0 75.7837158,0 L71.0472335,0 L0,61.7214758 L0,65.8338623 C0,68.1100647 2.11909668,69.9510059 4.73648224,69.9510059 L4.73648224,69.9510059 Z" id="Shape"></path>
                        <path d="M161.040396,0 L112.514725,0 C110.308017,0 108.473657,1.31529773 107.945252,3.08726303 L107.778243,3.08726303 L107.778243,90.0229725 L107.772767,90.0229725 C107.772767,90.0420003 107.778243,90.0586496 107.778243,90.0776774 C107.778243,92.3515014 105.659146,94.1924425 103.04176,94.1924425 C103.033547,94.1924425 103.025333,94.190064 103.01712,94.190064 L103.01712,94.1924425 L4.73648224,94.1924425 C2.34633831,94.1924425 0.394250545,95.7313171 0.0657084241,97.7292377 L0,97.7292377 L0,201.623487 C0,203.897311 2.11909668,205.738253 4.73648224,205.738253 L161.040396,205.738253 C163.657782,205.738253 165.776878,203.897311 165.776878,201.623487 L165.776878,4.11476505 C165.776878,1.84094113 163.657782,0 161.040396,0 L161.040396,0 Z" id="Shape"></path>
                    </g>
                </g>
            </g>
        </g>
    </g>
</svg>