<?xml version="1.0" encoding="UTF-8"?>
<svg width="35px" height="35px" viewBox="0 0 475 475" version="1.1" xmlns="http://www.w3.org/2000/svg" xmlns:xlink="http://www.w3.org/1999/xlink">
    <!-- Generator: Sketch 48.1 (47250) - http://www.bohemiancoding.com/sketch -->
    <title>监控LEFT</title>
    <desc>Created with Sketch.</desc>
    <defs></defs>
    <g id="圆图标" stroke="none" stroke-width="1" fill="none" fill-rule="evenodd">
        <g id="监控" fill="#FFFFFF">
            <g id="垃圾桶">
                <g id="Group">
                    <path d="M237.09673,474.322931 C106.458859,474.322931 0.177003802,368.024305 0.177003802,237.36855 C0.177003802,106.703023 106.458859,0.398534351 237.09673,0.398534351 C367.732654,0.398534351 474.01451,106.703023 474.01451,237.36855 C474.01451,368.02626 367.732654,474.322931 237.09673,474.322931 Z M236.984406,414.049538 C334.844644,414.049538 414.176041,335.117588 414.176041,237.750092 C414.176041,140.382597 334.844644,61.4506462 236.984406,61.4506462 C139.124169,61.4506462 59.7927716,140.382597 59.7927716,237.750092 C59.7927716,335.117588 139.124169,414.049538 236.984406,414.049538 Z" id="Combined-Shape" fill-rule="nonzero"></path>
                    <ellipse id="Oval-path" stroke="#979797" fill-opacity="0.4" cx="236.984406" cy="237.750092" rx="177.191635" ry="176.299446"></ellipse>
                </g>
                <g id="fi-video" transform="translate(121.000000, 155.000000)">
                    <g id="Layer_1">
                        <path d="M164.5956,118.270667 L164.5956,151.139556 C164.5956,158.908 158.619825,165.248444 151.319025,165.248444 L13.2795,165.248444 C5.9787,165.248444 0,158.908 0,151.139556 L0,14.8573333 C0,7.092 5.975775,0.748444444 13.2795,0.748444444 L151.319025,0.748444444 C158.619825,0.748444444 164.5956,7.08888889 164.5956,14.8573333 L164.5956,47.3124444 L164.5956,46.8582222 L234,12.2688889 L234,153.183556 L164.5956,118.270667 L164.5956,118.270667 Z" id="Shape"></path>
                    </g>
                </g>
            </g>
        </g>
    </g>
</svg>