<?xml version="1.0" encoding="utf-8"?>
<!-- Generator: Adobe Illustrator 21.1.0, SVG Export Plug-In . SVG Version: 6.00 Build 0)  -->
<svg version="1.1" id="图层_1" xmlns="http://www.w3.org/2000/svg" xmlns:xlink="http://www.w3.org/1999/xlink" x="0px" y="0px"
	 viewBox="0 0 50 50" style="enable-background:new 0 0 50 50;" xml:space="preserve">
<style type="text/css">
	.st0{fill:#2C2C2C;}
</style>
<path class="st0" d="M37.7,11.3c2,0,3.7-1.6,3.7-3.6c0-2-1.6-3.6-3.7-3.6c-2,0-3.7,1.6-3.7,3.6C34.1,9.7,35.7,11.3,37.7,11.3z
	 M41.7,12l-3.9,0l-3.9,0c-3.5,0-4.7,0.9-4.7,4.7V28c0,2.2,2.9,2.2,2.9,0l0.3-10.2h0.8v28c0,2.9,4,2.8,4,0l0.3-16.3h0.8l0.3,16.3
	c0,2.8,4,2.9,4,0v-28h0.8L43.4,28c0,2.2,2.9,2.2,2.9,0V16.8C46.3,12.9,45.2,12,41.7,12L41.7,12z M13.7,11.3c2,0,3.6-1.6,3.6-3.7
	c0-2-1.6-3.7-3.6-3.7s-3.6,1.6-3.6,3.7C10.1,9.6,11.7,11.3,13.7,11.3z M23.5,25.6l-3.1-10.3c-0.6-1.8-2.4-3.3-5-3.3H12
	c-2.6,0-4.4,1.4-5,3.3L3.9,25.6c-0.6,2.2,1.9,3,2.6,0.9l3.3-9.4h0.4c0,0-4.3,16.9-4.5,17.6c-0.1,0.3,0,0.5,0.4,0.5h3.7l0,11.1
	c0,2.3,3.3,2.3,3.3,0V35.1h1.3l0,11.2c0,2.3,3.3,2.3,3.3,0l0-11.1h3.7c0.3,0,0.5-0.2,0.4-0.5c-0.2-0.6-4.5-17.6-4.5-17.6h0.4
	l3.3,9.4C21.6,28.6,24.2,27.8,23.5,25.6L23.5,25.6z M25.2,3.3h1.4v44.5h-1.4L25.2,3.3z"/>
</svg>
