<?xml version="1.0" encoding="utf-8"?>
<!-- Generator: Adobe Illustrator 18.0.0, SVG Export Plug-In . SVG Version: 6.00 Build 0)  -->
<!DOCTYPE svg PUBLIC "-//W3C//DTD SVG 1.1//EN" "http://www.w3.org/Graphics/SVG/1.1/DTD/svg11.dtd">
<svg version="1.1" id="图层_1" xmlns="http://www.w3.org/2000/svg" xmlns:xlink="http://www.w3.org/1999/xlink" x="0px" y="0px"
	 viewBox="0 0 612 792" enable-background="new 0 0 612 792" xml:space="preserve">
<title>清洗车正常</title>
<desc>Created with Sketch.</desc>
<g id="Page-3">
	<g id="清洗车正常">
		<g id="Group-2" transform="translate(-1.000000, -1.000000)">
			<g id="外框">
				<g id="Group" transform="translate(0.627376, 0.679389)">
					<path id="Combined-Shape" fill="#1857A1" d="M255.9,599.9c-140.8,0-255-114.2-255-255s114.2-255,255-255s255,114.2,255,255
						C508.9,485.7,394.7,599.9,255.9,599.9z M253.9,534.6c106.1,0,189.7-85.7,189.7-189.7S360,157.2,253.9,157.2
						S64.2,242.9,64.2,346.9S149.9,534.6,253.9,534.6z"/>
				</g>
			</g>
			<g id="Group_1_" transform="translate(80.000000, 137.000000)">
				<g transform="translate(35.000000, 118.000000)">
					
						<image overflow="visible" opacity="0.75" enable-background="new    " width="167" height="171" id="Bitmap" xlink:href="86510C7D.png"  transform="matrix(0.5066 0 0 0.5275 9.2368 109.1416)">
					</image>
					<path id="Shape" fill="#1857A1" d="M47.2,174.6c-4.1-2-6.1-2-10.2-4.1c-8.2-4.1-14.3-16.3-12.2-26.5s8.2-14.3,16.3-18.4
						c6.1-2,14.3,0,18.4,4.1c10.2,8.2,12.2,26.5,2,36.7c-4.1,4.1-8.2,6.1-12.2,8.2C49.2,174.6,49.2,174.6,47.2,174.6
						C47.2,174.6,47.2,174.6,47.2,174.6z M30.8,150.2c0,10.2,6.1,16.3,16.3,16.3c8.2,0,16.3-8.2,16.3-16.3
						c0-10.2-6.1-16.3-16.3-16.3C39,131.8,30.8,140,30.8,150.2z"/>
				</g>
				<g transform="translate(75.000000, 0.000000)">
					
						<image overflow="visible" opacity="0.75" enable-background="new    " width="500" height="275" id="Bitmap_2_" xlink:href="86510C7F.png"  transform="matrix(0.5088 0 0 0.5265 11.8723 100.9269)">
					</image>
					<path id="Shape_1_" fill="#1857A1" d="M135.7,221.2c-20.4,0-40.8,0-61.2,0c-14.3,0-26.5-8.2-36.7-20.4
						c-8.2-10.2-12.2-24.5-10.2-36.7c0-10.2,4.1-20.4,12.2-30.6c10.2-12.2,24.5-18.4,38.8-18.4c38.8,0,75.5,0,114.2,0
						c10.2,0,20.4,2,30.6,10.2c10.2,8.2,18.4,20.4,18.4,34.7c2,16.3-2,28.6-12.2,40.8c-2,2-4.1,4.1-6.1,6.1
						c-10.2,8.2-20.4,12.2-32.6,12.2C172.4,221.2,154,221.2,135.7,221.2L135.7,221.2z"/>
				</g>
				<g transform="translate(0.000000, 20.000000)">
					
						<image overflow="visible" opacity="0.75" enable-background="new    " width="658" height="304" id="Bitmap_3_" xlink:href="86510C7A.png"  transform="matrix(0.5162 0 0 0.5242 6.2586 101.6403)">
					</image>
					<path id="Shape_2_" fill="#1857A1" d="M92.4,158.4c0,12.2,0,24.5,0,36.7c0,8.2,2,10.2,10.2,10.2c71.4,0,142.8,0,214.2,0h2
						c2,0,2,0,2,2c0,6.1,0,14.3,0,20.4c0,4.1-2,6.1-6.1,6.1h-2c-6.1,0-10.2,0-14.3-6.1c-4.1-8.2-8.2-14.3-18.4-16.3
						c-10.2-2-20.4-2-28.6,6.1c-4.1,4.1-8.2,8.2-8.2,14.3c0,2-2,2-4.1,2c-42.8,0-83.6,0-126.5,0c-2,0-4.1,0-4.1-2
						c-8.2-18.4-28.6-24.5-44.9-12.2c-4.1,4.1-8.2,8.2-10.2,14.3c0,2-2,2-4.1,2c-6.1,0-12.2,0-20.4,0s-10.2-2-10.2-10.2
						c0-12.2,0-24.5,0-36.7c0-10.2,2-18.4,8.2-26.5c8.2-12.2,18.4-24.5,26.5-38.8c4.1-6.1,8.2-8.2,16.3-8.2c6.1,0,12.2,0,18.4,0
						c2,0,2,0,2,2C92.4,133.9,92.4,146.2,92.4,158.4z M80.1,160.4c0-8.2,0-16.3,0-24.5c0-6.1-6.1-10.2-12.2-6.1
						c-2,2-6.1,4.1-6.1,6.1c-6.1,8.2-12.2,18.4-18.4,26.5c-4.1,6.1-8.2,12.2-8.2,20.4c0,6.1,2,10.2,8.2,10.2c8.2,0,18.4,0,26.5,0
						c6.1,0,8.2-4.1,8.2-8.2C80.1,176.8,80.1,168.6,80.1,160.4z"/>
				</g>
				<g transform="translate(212.000000, 115.000000)">
					
						<image overflow="visible" opacity="0.75" enable-background="new    " width="171" height="175" id="Bitmap_4_" xlink:href="86510C7B.png"  transform="matrix(0.5089 0 0 0.5211 21.6242 108.5328)">
					</image>
					<path id="Shape_3_" fill="#1857A1" d="M84.4,149.1c0,14.3-12.2,26.5-24.5,24.5c-12.2,0-24.5-10.2-24.5-26.5
						c0-14.3,10.2-24.5,24.5-24.5C74.2,124.6,84.4,136.8,84.4,149.1z M76.2,149.1c0-10.2-6.1-16.3-16.3-16.3
						c-8.2,0-16.3,6.1-16.3,16.3c0,10.2,6.1,16.3,16.3,16.3S76.2,159.3,76.2,149.1z"/>
				</g>
				<path id="Shape_4_" fill="none" d="M80.1,274.3c0-8.2,6.1-14.3,14.3-14.3c8.2,0,14.3,6.1,14.3,14.3c0,8.2-6.1,14.3-12.2,14.3
					C86.2,290.6,80.1,284.5,80.1,274.3z"/>
				<path id="Shape_5_" fill="none" d="M92.4,200.8c0,6.1,0,14.3,0,20.4c0,6.1-2,8.2-8.2,8.2c-8.2,0-16.3,0-22.4,0
					c-6.1,0-8.2-4.1-8.2-8.2c0-6.1,4.1-12.2,8.2-18.4c6.1-8.2,10.2-16.3,16.3-24.5c2-2,4.1-4.1,6.1-6.1c6.1-2,10.2,0,10.2,6.1
					C92.4,186.6,92.4,192.7,92.4,200.8z"/>
				<path id="Shape_6_" fill="none" d="M271.9,274.3c0,8.2-6.1,14.3-14.3,14.3c-8.2,0-14.3-6.1-14.3-14.3c0-8.2,6.1-14.3,14.3-14.3
					C265.8,258,271.9,264.1,271.9,274.3z"/>
			</g>
		</g>
	</g>
</g>
</svg>
