<?xml version="1.0" encoding="UTF-8"?>
<svg width="30px" height="30px" viewBox="0 0 475 475" version="1.1" xmlns="http://www.w3.org/2000/svg" xmlns:xlink="http://www.w3.org/1999/xlink">
    <!-- Generator: Sketch 48.1 (47250) - http://www.bohemiancoding.com/sketch -->
    <title>中转站管理TOP</title>
    <desc>Created with Sketch.</desc>
    <defs></defs>
    <g id="圆图标" stroke="none" stroke-width="1" fill="none" fill-rule="evenodd">
        <g id="中转站管理" fill="#4b2b2b">
            <g id="垃圾桶" fill-rule="nonzero">
                <g id="Group">
                    <path d="M237.09673,474.322931 C106.458859,474.322931 0.177003802,368.024305 0.177003802,237.36855 C0.177003802,106.703023 106.458859,0.398534351 237.09673,0.398534351 C367.732654,0.398534351 474.01451,106.703023 474.01451,237.36855 C474.01451,368.02626 367.732654,474.322931 237.09673,474.322931 Z M236.984406,414.049538 C334.844644,414.049538 414.176041,335.117588 414.176041,237.750092 C414.176041,140.382597 334.844644,61.4506462 236.984406,61.4506462 C139.124169,61.4506462 59.7927716,140.382597 59.7927716,237.750092 C59.7927716,335.117588 139.124169,414.049538 236.984406,414.049538 Z" id="Combined-Shape"></path>
                </g>
            </g>
            <g id="fi-home" transform="translate(154.000000, 147.000000)">
                <g id="Layer_1">
                    <path d="M165.369286,61.5638158 L86.4601429,1.63852632 C84.238,-0.04525 81.1245714,-0.0238157895 78.9315714,1.69806579 L2.54571429,61.6209737 C1.108,62.7498421 0.265285714,64.4669605 0.265285714,66.2793421 L0.265285714,174.641184 C0.265285714,177.939671 2.98771429,180.607039 6.34885714,180.607039 L51.7558571,180.607039 C55.1121429,180.607039 57.8394286,177.937289 57.8394286,174.641184 L57.8394286,108.292776 L110.150857,108.292776 L110.150857,174.641184 C110.150857,177.939671 112.878143,180.607039 116.234429,180.607039 L161.648714,180.607039 C165.005,180.607039 167.732286,177.937289 167.732286,174.641184 L167.732286,66.2793421 C167.734714,64.4336184 166.860429,62.6926842 165.369286,61.5638158 L165.369286,61.5638158 Z" id="Shape"></path>
                </g>
            </g>
        </g>
    </g>
</svg>