<?xml version="1.0" encoding="UTF-8"?>
<svg width="30px" height="30px" viewBox="0 0 475 475" version="1.1" xmlns="http://www.w3.org/2000/svg" xmlns:xlink="http://www.w3.org/1999/xlink">
    <!-- Generator: Sketch 48.1 (47250) - http://www.bohemiancoding.com/sketch -->
    <title>公厕TOP</title>
    <desc>Created with Sketch.</desc>
    <defs></defs>
    <g id="圆图标" stroke="none" stroke-width="1" fill="none" fill-rule="evenodd">
        <g id="公厕" fill="#4b2b2b" fill-rule="nonzero">
            <g transform="translate(-1.000000, -1.000000)">
                <g id="Group" transform="translate(0.627376, 0.679389)">
                    <path d="M237.469354,474.643542 C106.831483,474.643542 0.549627376,368.344916 0.549627376,237.68916 C0.549627376,107.023634 106.831483,0.719145038 237.469354,0.719145038 C368.105278,0.719145038 474.387133,107.023634 474.387133,237.68916 C474.387133,368.34687 368.105278,474.643542 237.469354,474.643542 Z M237.35703,414.370149 C335.217267,414.370149 414.548664,335.438199 414.548664,238.070703 C414.548664,140.703207 335.217267,61.7712568 237.35703,61.7712568 C139.496792,61.7712568 60.1653951,140.703207 60.1653951,238.070703 C60.1653951,335.438199 139.496792,414.370149 237.35703,414.370149 Z" id="Combined-Shape"></path>
                </g>
                <path d="M180.689612,204.954643 C163.788818,204.954643 150.038548,191.515406 150.038548,174.996186 C150.038548,158.478224 163.788818,145.038987 180.689612,145.038987 C197.591673,145.038987 211.343211,158.478224 211.343211,174.996186 C211.343211,191.515406 197.591673,204.954643 180.689612,204.954643 Z M180.689612,153.84253 C168.68062,153.84253 158.90969,163.331492 158.90969,174.996186 C158.90969,186.660881 168.679352,196.1511 180.689612,196.1511 C192.699871,196.1511 202.472068,186.660881 202.472068,174.996186 C202.472068,163.331492 192.699871,153.84253 180.689612,153.84253 Z M297.348936,204.915656 C280.44941,204.915656 266.700406,191.476419 266.700406,174.957199 C266.700406,158.439237 280.44941,145 297.348936,145 C314.249729,145 328,158.439237 328,174.957199 C327.998733,191.476419 314.248462,204.915656 297.348936,204.915656 Z M297.348936,153.803543 C285.341211,153.803543 275.571549,163.292505 275.571549,174.957199 C275.571549,186.621894 285.341211,196.112113 297.348936,196.112113 C309.359195,196.112113 319.128858,186.621894 319.128858,174.957199 C319.12759,163.293762 309.357928,153.803543 297.348936,153.803543 Z M232.350076,236.797059 L232.332333,236.797059 L232.280374,236.374489 C230.896476,227.957044 214.083126,219.916894 194.480436,217.166415 C194.443684,217.158869 194.405665,217.156354 194.370181,217.150066 L194.038147,217.101018 L194.036879,217.116109 C193.878466,217.09976 193.725122,217.068319 193.562907,217.068319 C192.386301,217.068319 191.257904,217.532248 190.426036,218.358012 C189.594169,219.183777 189.126999,220.303708 189.127336,221.471348 C189.12949,223.859152 191.05218,225.808511 193.45772,225.861801 L193.45772,225.871862 C196.879447,226.372406 200.656019,227.114419 203.568288,227.87907 C215.18695,230.928868 222.499306,235.557017 223.472597,237.65226 C223.426974,237.799405 223.350936,237.986795 223.19379,238.375408 L207.959504,273.205997 L201.353037,273.205997 L200.242877,275.986659 C193.678232,292.426647 182.707163,319.469874 181.266236,321.980141 C181.191465,322.046797 180.868302,322.193942 180.396864,322.193942 C179.971049,322.193942 179.675767,322.070692 179.642817,322.070692 L179.640283,322.070692 C177.754531,318.898901 167.347414,292.162541 161.231395,276.054573 L160.149115,273.20474 L152.944481,273.20474 L138.034625,237.706339 C139.446404,235.382204 146.771433,230.770405 158.135366,227.779715 C160.247022,227.239047 162.376463,226.769258 164.520054,226.371148 L164.520054,226.366118 C166.83573,226.208334 168.634272,224.300481 168.638799,221.997045 C168.639135,220.829405 168.171965,219.709474 167.340098,218.88371 C166.508231,218.057945 165.379834,217.594016 164.203227,217.594016 C163.682365,217.594016 163.19065,217.699659 162.726816,217.863153 C144.035319,221.257548 129,229.449873 129,237.842165 C129,238.611846 129.171086,239.195395 129.255996,239.48717 L147.028696,282.012056 L154.011552,282.012056 C157.848955,292.068217 169.443538,322.253051 171.99716,326.547923 C173.656063,329.33613 176.79518,331 180.39433,331 C183.941519,331 187.170615,329.304689 188.81938,326.578106 C190.743151,323.406315 202.934635,293.103262 207.375275,282.010798 L213.776438,282.010798 L231.257658,242.064093 L231.422408,241.65913 C231.878638,240.532276 232.10802,239.932378 232.313324,238.650833 C232.455262,237.827073 232.351343,236.805862 232.350076,236.797059 Z" id="Shape"></path>
                <path d="M174,219.5 C174,221.985281 175.790861,224 178,224 C180.209139,224 182,221.985281 182,219.5 C182,217.014719 180.209139,215 178,215 C175.790861,215 174,217.014719 174,219.5 Z" id="Shape"></path>
                <path d="M347,310.050364 C347,309.556108 346.958123,309.136432 346.859143,308.645968 L346.478447,307.381886 C346.399511,307.182895 346.309702,306.988357 346.209422,306.799144 L333.997967,281.259625 L343.873218,281.259625 L339.643687,274.49552 C339.342937,274.013905 309.502726,226.287213 306.773136,221.57345 C305.113302,218.709039 301.735261,217 297.735416,217 C293.731765,217 290.338496,218.697663 288.659627,221.544376 C286.649553,224.952342 256.63549,274.037922 256.330933,274.533443 L252.218149,281.258361 L262.002033,281.258361 L250.378119,305.57804 C250.264015,305.832098 250.154861,306.088333 250.050721,306.346603 L249.309633,308.087244 L249.228418,308.479109 C249.153547,308.750887 249,309.31214 249,310.0491 C249,319.20232 262.977883,327.961146 282.686509,330.836933 C283.050708,330.93174 283.426328,331 283.820982,331 C286.275202,331 288.262434,329.020447 288.262434,326.576976 C288.258514,324.347529 286.584974,322.471597 284.362839,322.205779 L284.364108,322.19061 C268.088091,319.773685 259.592228,313.234587 258.02503,310.260201 L276.071283,272.409784 L268.030987,272.409784 C276.295894,258.890424 294.186062,229.611749 296.239282,226.160805 C296.438512,226.041981 296.981639,225.847312 297.737954,225.847312 C298.462545,225.847312 298.968871,226.021756 299.164295,226.134259 C301.688308,230.44478 319.545483,259.063603 327.880184,272.40852 L319.929986,272.40852 L338.014308,310.227335 C336.670452,313.098066 328.86238,319.587865 313.237352,322.147632 C313.205628,322.146367 313.173903,322.137519 313.142178,322.137519 C310.688882,322.137519 308.700092,324.118623 308.700092,326.562439 C308.700092,329.006255 310.688882,330.987359 313.142178,330.987359 C313.281767,330.987359 313.41501,330.959549 313.550792,330.946909 L313.552061,330.960813 L313.819817,330.920363 C313.91626,330.905194 314.015241,330.896345 314.110415,330.87612 C333.608388,327.978843 347,319.319879 347,310.050364 Z" id="Shape"></path>
                <path d="M293,327.5 C293,329.985281 294.790861,332 297,332 C299.209139,332 301,329.985281 301,327.5 C301,325.014719 299.209139,323 297,323 C294.790861,323 293,325.014719 293,327.5 Z" id="Shape"></path>
            </g>
        </g>
    </g>
</svg>