<?xml version="1.0" encoding="UTF-8"?>
<svg width="475px" height="475px" viewBox="0 0 475 475" version="1.1" xmlns="http://www.w3.org/2000/svg" xmlns:xlink="http://www.w3.org/1999/xlink">
    <!-- Generator: Sketch 48.1 (47250) - http://www.bohemiancoding.com/sketch -->
    <title>车辆LEFT</title>
    <desc>Created with Sketch.</desc>
    <defs></defs>
    <g id="圆图标" stroke="none" stroke-width="1" fill="none" fill-rule="evenodd">
        <g id="车辆" fill="#FFFFFF">
            <g>
                <path d="M237.09673,474.322931 C106.458859,474.322931 0.177003802,368.024305 0.177003802,237.36855 C0.177003802,106.703023 106.458859,0.398534351 237.09673,0.398534351 C367.732654,0.398534351 474.01451,106.703023 474.01451,237.36855 C474.01451,368.02626 367.732654,474.322931 237.09673,474.322931 Z M236.984406,414.049538 C334.844644,414.049538 414.176041,335.117588 414.176041,237.750092 C414.176041,140.382597 334.844644,61.4506462 236.984406,61.4506462 C139.124169,61.4506462 59.7927716,140.382597 59.7927716,237.750092 C59.7927716,335.117588 139.124169,414.049538 236.984406,414.049538 Z" id="Combined-Shape" fill-rule="nonzero"></path>
                <ellipse id="Oval-path" stroke="#979797" fill-opacity="0.4" cx="236.984406" cy="237.750092" rx="177.191635" ry="176.299446"></ellipse>
                <path d="M358.316242,193.969749 L334.228791,193.969749 C333.129779,193.991008 332.052113,194.290512 331.088262,194.842562 L320.227267,160.750262 C316.764633,141.338052 303.669032,132 287.593954,132 L185.647564,132 C167.176827,132 155.983661,144.566409 152.984054,160.72923 L142.102927,194.94772 C141.101967,194.319787 139.95878,193.982189 138.79128,193.969749 L114.703828,193.969749 C112.925973,193.964152 111.219243,194.69878 109.961159,196.011137 C108.703076,197.323495 107.997322,199.105424 108.000008,200.962771 L108.000008,207.030401 C108.000008,210.879193 110.989549,214.023424 114.703828,214.023424 L123.803309,215.642861 C120.748798,221.960854 119.198421,228.95547 119.283766,236.033043 L115.92179,276.287615 C115.92179,277.444356 116.002317,278.64316 116.133172,279.841964 C115.990157,280.586261 115.919338,281.343725 115.92179,282.102865 L115.92179,330.528233 C115.92179,337.405582 121.276794,343 127.879957,343 L146.129246,343 C152.732409,343 158.107544,337.416098 158.107544,330.528233 L158.107544,314.964814 L315.093711,314.964814 L315.093711,330.528233 C315.115879,337.418896 320.466132,342.994249 327.061943,343 L345.331365,343 C351.914396,343 357.289531,337.416098 357.289531,330.528233 L357.289531,282.102865 C357.289531,281.324694 357.209005,280.567555 357.078149,279.841964 C357.209005,278.64316 357.289531,277.444356 357.289531,276.287615 L353.907423,236.033043 C353.907423,228.20927 352.256633,221.468627 349.367749,215.600797 L358.296111,214.023424 C361.992311,214.017652 364.988852,210.89184 364.999931,207.030401 L364.999931,200.962771 C365.007988,199.107362 364.306726,197.325363 363.051833,196.012391 C361.79694,194.699419 360.092258,193.964124 358.316242,193.969749 Z M160.977638,186.449657 L168.944833,164.267264 L169.075607,163.740116 C169.850196,159.248814 171.630743,158.458092 174.246236,155 L298.934837,155 C301.570449,158.563522 303.220221,159.470216 303.944512,163.697944 L312.032421,186.439114 L315,198.816552 C314.326008,207.851871 303.944512,215 295.303325,215 L177.706734,215 C169.075607,215 158.673992,207.851871 158,198.816552 L160.977638,186.449657 Z M166.700168,291.994694 C160.072272,292.157286 153.879829,288.572899 150.519927,282.629046 C147.160024,276.685194 147.160024,269.314806 150.519927,263.370954 C153.879829,257.427101 160.072272,253.842714 166.700168,254.005306 C176.789389,253.999451 184.977581,262.491464 185,272.984149 C184.997306,278.028862 183.06778,282.865844 179.635895,286.431013 C176.204011,289.996181 171.550891,291.997498 166.700168,291.994694 Z M267.999962,278.373251 C268.005346,279.861806 267.43897,281.291458 266.425712,282.346983 C265.412454,283.402508 264.035526,283.997223 262.598528,284 L211.421712,284 C209.982029,284.000003 208.60146,283.406851 207.584402,282.351328 C206.567344,281.295805 205.997319,279.864591 206.000009,278.373251 L206.000009,262.616252 C206.000009,259.51944 208.422041,257 211.421712,257 L262.598528,257 C265.588064,257 267.999962,259.51944 267.999962,262.616252 L267.999962,278.373251 Z M306.787737,292 C296.89671,291.756598 289,283.321715 289,273 C289,262.678285 296.89671,254.243402 306.787737,254 C316.846092,254 325,262.50659 325,273 C325,283.49341 316.846092,292 306.787737,292 Z" id="Shape" fill-rule="nonzero"></path>
            </g>
        </g>
    </g>
</svg>