<?xml version="1.0" standalone="no"?><!DOCTYPE svg PUBLIC "-//W3C//DTD SVG 1.1//EN" "http://www.w3.org/Graphics/SVG/1.1/DTD/svg11.dtd"><svg t="1516184195855" class="icon" style="" viewBox="0 0 1756 1024" version="1.1" xmlns="http://www.w3.org/2000/svg" p-id="1035" xmlns:xlink="http://www.w3.org/1999/xlink" width="34.296875" height="20"><defs><style type="text/css"></style></defs><path d="M937.380571 482.133943l287.400229-287.400229c8.817371-8.8192 8.817371-23.114971 0-31.934171-8.8192-8.8192-23.114971-8.8192-31.934171 0L905.448229 450.199771 618.048 162.801371c-8.817371-8.8192-23.114971-8.8192-31.934171 0-8.817371 8.817371-8.817371 23.113143 0 31.934171l287.400229 287.400229L586.113829 769.534171c-8.817371 8.8192-8.817371 23.114971 0 31.934171 8.817371 8.8192 23.114971 8.8192 31.934171 0l287.400229-287.400229 287.400229 287.400229c8.817371 8.8192 23.113143 8.8192 31.934171 0 8.817371-8.817371 8.817371-23.113143 0-31.934171L937.380571 482.133943z" p-id="1036"></path></svg>