<?xml version="1.0" encoding="UTF-8"?>
<svg width="35px" height="35px" viewBox="0 0 475 475" version="1.1" xmlns="http://www.w3.org/2000/svg" xmlns:xlink="http://www.w3.org/1999/xlink">
    <!-- Generator: Sketch 48.1 (47250) - http://www.bohemiancoding.com/sketch -->
    <title>主页TOP</title>
    <desc>Created with Sketch.</desc>
    <defs>
        <filter x="-2.1%" y="-2.1%" width="104.3%" height="105.9%" filterUnits="objectBoundingBox" id="filter-1">
            <feOffset dx="0" dy="2" in="SourceAlpha" result="shadowOffsetOuter1"></feOffset>
            <feGaussianBlur stdDeviation="2" in="shadowOffsetOuter1" result="shadowBlurOuter1"></feGaussianBlur>
            <feColorMatrix values="0 0 0 0 0   0 0 0 0 0   0 0 0 0 0  0 0 0 0.5 0" type="matrix" in="shadowBlurOuter1" result="shadowMatrixOuter1"></feColorMatrix>
            <feMerge>
                <feMergeNode in="shadowMatrixOuter1"></feMergeNode>
                <feMergeNode in="SourceGraphic"></feMergeNode>
            </feMerge>
        </filter>
    </defs>
    <g id="圆图标" stroke="none" stroke-width="1" fill="none" fill-rule="evenodd">
        <g id="主页" fill="#FFFFFF">
            <g id="人员" transform="translate(4.000000, 0.000000)" fill-rule="nonzero">
                <path d="M237.09673,474.322931 C106.458859,474.322931 0.177003802,368.024305 0.177003802,237.36855 C0.177003802,106.703023 106.458859,0.398534351 237.09673,0.398534351 C367.732654,0.398534351 474.01451,106.703023 474.01451,237.36855 C474.01451,368.02626 367.732654,474.322931 237.09673,474.322931 Z M236.984406,414.049538 C334.844644,414.049538 414.176041,335.117588 414.176041,237.750092 C414.176041,140.382597 334.844644,61.4506462 236.984406,61.4506462 C139.124169,61.4506462 59.7927716,140.382597 59.7927716,237.750092 C59.7927716,335.117588 139.124169,414.049538 236.984406,414.049538 Z" id="Combined-Shape"></path>
            </g>
            <g id="Group-2" filter="url(#filter-1)" style="mix-blend-mode: hard-light;" transform="translate(75.000000, 120.000000)">
                <g id="Group" transform="translate(209.500000, 116.000000) rotate(45.000000) translate(-209.500000, -116.000000) translate(128.000000, 34.000000)">
                    <path d="M14.0701405,136.119546 L149.359953,136.119546 C156.861966,136.260733 162.899978,142.276509 162.899978,149.67727 C162.899978,157.078031 156.861966,163.093808 149.359953,163.232545 L14.0701405,163.234994 C13.9819876,163.234175 13.8936326,163.234994 13.8050829,163.234994 C6.18074615,163.234994 5.68434189e-14,157.164994 5.68434189e-14,149.67727 C5.68434189e-14,142.189546 6.18074615,136.119546 13.8050829,136.119546 C13.8936326,136.119546 13.9819876,136.120365 14.0701405,136.121995 Z" id="Combined-Shape" transform="translate(81.449989, 149.677270) rotate(180.000000) translate(-81.449989, -149.677270) "></path>
                    <path d="M81.9801044,68.0653069 L217.269917,68.0653069 C224.77193,68.2064932 230.809942,74.2222697 230.809942,81.6230307 C230.809942,89.0237917 224.77193,95.0395682 217.269917,95.1783054 L81.9801044,95.1807544 C81.8919515,95.1799357 81.8035965,95.1807544 81.7150468,95.1807544 C74.09071,95.1807544 67.9099639,89.1107547 67.9099639,81.6230307 C67.9099639,74.1353066 74.09071,68.0653069 81.7150468,68.0653069 C81.8035965,68.0653069 81.8919515,68.0661257 81.9801044,68.0677559 Z" id="Combined-Shape" transform="translate(149.359953, 81.623031) rotate(90.000000) translate(-149.359953, -81.623031) "></path>
                    <path d="M14.0701405,0 L149.359953,0 C156.861966,0.141186266 162.899978,6.15696277 162.899978,13.5577237 C162.899978,20.9584847 156.861966,26.9742612 149.359953,27.1129985 L14.0701405,27.1154475 C13.9819876,27.1146287 13.8936326,27.1154475 13.8050829,27.1154475 C6.18074615,27.1154475 0,21.0454478 0,13.5577237 C0,6.06999968 6.18074615,0 13.8050829,0 C13.8936326,0 13.9819876,0.000818764437 14.0701405,0.0024490051 Z" id="Combined-Shape"></path>
                </g>
                <g id="Group" transform="translate(116.500000, 120.000000) rotate(225.000000) translate(-116.500000, -120.000000) translate(35.000000, 38.000000)">
                    <path d="M14.0701405,136.119546 L149.359953,136.119546 C156.861966,136.260733 162.899978,142.276509 162.899978,149.67727 C162.899978,157.078031 156.861966,163.093808 149.359953,163.232545 L14.0701405,163.234994 C13.9819876,163.234175 13.8936326,163.234994 13.8050829,163.234994 C6.18074615,163.234994 5.68434189e-14,157.164994 5.68434189e-14,149.67727 C5.68434189e-14,142.189546 6.18074615,136.119546 13.8050829,136.119546 C13.8936326,136.119546 13.9819876,136.120365 14.0701405,136.121995 Z" id="Combined-Shape" transform="translate(81.449989, 149.677270) rotate(180.000000) translate(-81.449989, -149.677270) "></path>
                    <path d="M81.9801044,68.0653069 L217.269917,68.0653069 C224.77193,68.2064932 230.809942,74.2222697 230.809942,81.6230307 C230.809942,89.0237917 224.77193,95.0395682 217.269917,95.1783054 L81.9801044,95.1807544 C81.8919515,95.1799357 81.8035965,95.1807544 81.7150468,95.1807544 C74.09071,95.1807544 67.9099639,89.1107547 67.9099639,81.6230307 C67.9099639,74.1353066 74.09071,68.0653069 81.7150468,68.0653069 C81.8035965,68.0653069 81.8919515,68.0661257 81.9801044,68.0677559 Z" id="Combined-Shape" transform="translate(149.359953, 81.623031) rotate(90.000000) translate(-149.359953, -81.623031) "></path>
                    <path d="M14.0701405,0 L149.359953,0 C156.861966,0.141186266 162.899978,6.15696277 162.899978,13.5577237 C162.899978,20.9584847 156.861966,26.9742612 149.359953,27.1129985 L14.0701405,27.1154475 C13.9819876,27.1146287 13.8936326,27.1154475 13.8050829,27.1154475 C6.18074615,27.1154475 0,21.0454478 0,13.5577237 C0,6.06999968 6.18074615,0 13.8050829,0 C13.8936326,0 13.9819876,0.000818764437 14.0701405,0.0024490051 Z" id="Combined-Shape"></path>
                </g>
            </g>
        </g>
    </g>
</svg>