<?xml version="1.0" encoding="UTF-8"?>
<svg width="35px" height="35px" viewBox="0 0 475 475" version="1.1" xmlns="http://www.w3.org/2000/svg" xmlns:xlink="http://www.w3.org/1999/xlink">
    <!-- Generator: Sketch 48.1 (47250) - http://www.bohemiancoding.com/sketch -->
    <title>垃圾填埋场TOP</title>
    <desc>Created with Sketch.</desc>
    <defs></defs>
    <g id="圆图标" stroke="none" stroke-width="1" fill="none" fill-rule="evenodd">
        <g id="垃圾填埋场" fill="#FFFFFF">
            <g id="垃圾桶" fill-rule="nonzero">
                <g id="Group">
                    <path d="M237.09673,474.322931 C106.458859,474.322931 0.177003802,368.024305 0.177003802,237.36855 C0.177003802,106.703023 106.458859,0.398534351 237.09673,0.398534351 C367.732654,0.398534351 474.01451,106.703023 474.01451,237.36855 C474.01451,368.02626 367.732654,474.322931 237.09673,474.322931 Z M236.984406,414.049538 C334.844644,414.049538 414.176041,335.117588 414.176041,237.750092 C414.176041,140.382597 334.844644,61.4506462 236.984406,61.4506462 C139.124169,61.4506462 59.7927716,140.382597 59.7927716,237.750092 C59.7927716,335.117588 139.124169,414.049538 236.984406,414.049538 Z" id="Combined-Shape"></path>
                </g>
            </g>
            <g id="fi-trees" transform="translate(131.000000, 118.000000)">
                <g id="Layer_1">
                    <path d="M212.86983,217.837895 L212.927857,217.796842 L194.548292,177.953684 L201.78154,177.953684 L201.78154,177.912632 C203.290254,177.912632 204.513876,176.384211 204.513876,174.495789 C204.513876,173.911579 204.365023,173.387368 204.160666,172.907368 L204.208601,172.872632 L187.211603,136.023158 L191.34669,136.023158 L191.34669,135.994737 C192.423982,135.994737 193.296917,134.898947 193.296917,133.556842 C193.296917,133.14 193.190954,132.767368 193.044624,132.423158 L193.077422,132.397895 L168.347634,78.78 L168.322405,78.7989474 C167.777452,77.4031579 166.657269,76.4178947 165.330207,76.4178947 C164.00819,76.4178947 162.888008,77.4 162.340531,78.7926316 L162.327917,78.7831579 L137.598129,132.397895 L137.603175,132.401053 C137.449276,132.748421 137.338267,133.130526 137.338267,133.556842 C137.338267,134.902105 138.211202,135.994737 139.288494,135.994737 L139.288494,136.023158 L143.479086,136.023158 L126.482087,172.872632 L126.489656,172.875789 C126.275207,173.365263 126.118785,173.898947 126.118785,174.495789 C126.118785,176.384211 127.342407,177.912632 128.851121,177.912632 L128.851121,177.953684 L136.152489,177.953684 L130.85433,189.442105 L109.664217,143.501053 L119.872003,143.501053 L119.872003,143.444211 C122.001359,143.444211 123.727045,141.281053 123.727045,138.618947 C123.727045,137.797895 123.547916,137.033684 123.257779,136.354737 L123.295623,136.326316 L99.3101008,84.3252632 L105.145644,84.3252632 L105.145644,84.2873684 C106.666973,84.2873684 107.898164,82.7463158 107.898164,80.8389474 C107.898164,80.2515789 107.749311,79.7242105 107.542431,79.2410526 L107.590366,79.2063158 L72.6881137,3.55263158 L72.675499,3.56210526 C71.9060045,1.58842105 70.3039422,0.214736842 68.4294031,0.214736842 C66.51702,0.214736842 64.8771137,1.64210526 64.1303256,3.68842105 L29.2961922,79.2063158 L29.303761,79.2126316 C29.0867888,79.7052632 28.9303669,80.2421053 28.9303669,80.8421053 C28.9303669,82.7494737 30.1615581,84.2905263 31.6803637,84.2905263 L31.6803637,84.3284211 L37.5966411,84.3284211 L13.8936873,135.713684 C13.4017154,136.525263 13.0964406,137.523158 13.0964406,138.618947 C13.0964406,141.284211 14.8246495,143.444211 16.9514819,143.444211 L16.9514819,143.501053 L27.2551395,143.501053 L1.67260078,198.969474 C1.0670969,199.961053 0.696225775,201.186316 0.696225775,202.531579 C0.696225775,205.790526 2.81044348,208.436842 5.41663307,208.436842 L5.41663307,208.503158 L55.3177213,208.503158 L55.3177213,235.124211 C55.3177213,237.697895 56.9853798,239.788421 59.0415701,239.788421 L77.6683831,239.788421 C79.7245733,239.788421 81.3947548,237.701053 81.3947548,235.124211 L81.3947548,208.503158 L122.064432,208.503158 L117.777969,217.796842 L117.785538,217.803158 C117.523153,218.4 117.33141,219.053684 117.33141,219.786316 C117.33141,222.097895 118.827509,223.970526 120.674296,223.970526 L120.674296,224.017895 L156.035722,224.017895 L156.035722,236.463158 C156.035722,238.288421 157.218978,239.766316 158.67471,239.766316 L171.874694,239.766316 C173.33295,239.766316 174.513682,238.288421 174.513682,236.463158 L174.513682,224.017895 L209.960888,224.017895 L209.960888,223.970526 C211.807675,223.970526 213.306297,222.097895 213.306297,219.786316 C213.303774,219.069474 213.124646,218.425263 212.86983,217.837895 L212.86983,217.837895 Z" id="Shape"></path>
                </g>
            </g>
        </g>
    </g>
</svg>