<?xml version="1.0" encoding="UTF-8"?>
<svg width="35px" height="35px" viewBox="0 0 475 475" version="1.1" xmlns="http://www.w3.org/2000/svg" xmlns:xlink="http://www.w3.org/1999/xlink">
    <!-- Generator: Sketch 48.1 (47250) - http://www.bohemiancoding.com/sketch -->
    <title>人员LEFT</title>
    <desc>Created with Sketch.</desc>
    <defs></defs>
    <g id="圆图标" stroke="none" stroke-width="1" fill="none" fill-rule="evenodd">
        <g id="人员" fill="#FFFFFF">
            <g>
                <path d="M237.09673,474.322931 C106.458859,474.322931 0.177003802,368.024305 0.177003802,237.36855 C0.177003802,106.703023 106.458859,0.398534351 237.09673,0.398534351 C367.732654,0.398534351 474.01451,106.703023 474.01451,237.36855 C474.01451,368.02626 367.732654,474.322931 237.09673,474.322931 Z M236.984406,414.049538 C334.844644,414.049538 414.176041,335.117588 414.176041,237.750092 C414.176041,140.382597 334.844644,61.4506462 236.984406,61.4506462 C139.124169,61.4506462 59.7927716,140.382597 59.7927716,237.750092 C59.7927716,335.117588 139.124169,414.049538 236.984406,414.049538 Z" id="Combined-Shape" fill-rule="nonzero"></path>
                <ellipse id="Oval-path" stroke="#979797" fill-opacity="0.4" cx="236.984406" cy="237.750092" rx="177.191635" ry="176.299446"></ellipse>
                <path d="M329.436389,180.040758 C329.436389,99.5973207 271.975879,88.1060091 237.501388,88.1060091 C203.024027,88.1060091 145.564537,99.5973207 145.564537,180.040758 C145.564537,252.82431 195.364583,302.620424 195.364583,302.620424 L199.192685,306.452312 L199.192685,314.112754 C199.192685,325.60351 191.53324,348.590021 160.887314,352.418575 C134.073287,356.250463 114.921944,367.741219 99.5983324,383.06488 C134.072823,417.539277 183.873332,440.525233 237.502962,440.525233 C291.132036,440.525233 340.929212,417.539278 375.40611,383.06488 C363.911898,363.909332 340.929212,352.418575 314.113796,352.418575 C283.46787,348.59002 275.80787,325.604528 275.80787,314.112754 L275.80787,310.280866 L279.638749,306.452311 C279.638749,302.620424 329.436389,252.824309 329.436389,180.040758 Z" id="Shape" fill-rule="nonzero"></path>
            </g>
        </g>
    </g>
</svg>