<?xml version="1.0" encoding="UTF-8"?>
<svg width="35px" height="35px" viewBox="0 0 475 475" version="1.1" xmlns="http://www.w3.org/2000/svg" xmlns:xlink="http://www.w3.org/1999/xlink">
    <!-- Generator: Sketch 48.1 (47250) - http://www.bohemiancoding.com/sketch -->
    <title>区域设置LEFT</title>
    <desc>Created with Sketch.</desc>
    <defs></defs>
    <g id="圆图标" stroke="none" stroke-width="1" fill="none" fill-rule="evenodd">
        <g id="区域设置" fill="#FFFFFF">
            <g id="垃圾桶">
                <g id="Group">
                    <path d="M237.09673,474.322931 C106.458859,474.322931 0.177003802,368.024305 0.177003802,237.36855 C0.177003802,106.703023 106.458859,0.398534351 237.09673,0.398534351 C367.732654,0.398534351 474.01451,106.703023 474.01451,237.36855 C474.01451,368.02626 367.732654,474.322931 237.09673,474.322931 Z M236.984406,414.049538 C334.844644,414.049538 414.176041,335.117588 414.176041,237.750092 C414.176041,140.382597 334.844644,61.4506462 236.984406,61.4506462 C139.124169,61.4506462 59.7927716,140.382597 59.7927716,237.750092 C59.7927716,335.117588 139.124169,414.049538 236.984406,414.049538 Z" id="Combined-Shape" fill-rule="nonzero"></path>
                    <ellipse id="Oval-path" stroke="#979797" fill-opacity="0.4" cx="236.984406" cy="237.750092" rx="177.191635" ry="176.299446"></ellipse>
                </g>
            </g>
            <g id="fi-crop" transform="translate(161.000000, 164.000000)">
                <g id="Layer_1">
                    <path d="M148.799683,112.014341 L148.797805,112.014341 L135.157537,112.014341 L135.157537,26.9991707 L135.061756,26.9991707 C135.06739,26.8728293 135.101195,26.7555122 135.101195,26.6273659 C135.101195,21.8715122 131.087805,18.0144878 126.139146,18.0144878 L126.139146,18.0144878 L37.5421951,18.0144878 L37.5421951,5.25760976 L37.5421951,5.25760976 C37.5421951,2.5737561 35.2791463,0.398878049 32.4846098,0.397073171 L23.9000488,0.397073171 C21.1055122,0.397073171 18.8424634,2.57195122 18.8424634,5.25760976 C18.8424634,5.25760976 18.8424634,5.25760976 18.8424634,5.25941463 L18.8424634,18.0144878 L5.20219512,18.0144878 L5.20031707,18.0144878 C2.40765854,18.0144878 0.144609756,20.1893659 0.142731707,22.8750244 L0.142731707,31.125122 C0.142731707,33.8107805 2.40578049,35.9856585 5.20031707,35.9856585 L5.20219512,35.9856585 L18.8424634,35.9856585 L18.8424634,121.000829 L18.940122,121.000829 C18.9344878,121.127171 18.9006829,121.244488 18.9006829,121.372634 C18.9006829,126.128488 22.9140732,129.985512 27.8627317,129.985512 L27.8627317,129.985512 L116.457805,129.985512 L116.457805,142.74239 C116.457805,145.426244 118.720854,147.601122 121.51539,147.602927 L130.099951,147.602927 C132.894488,147.602927 135.157537,145.428049 135.157537,142.74239 L135.157537,129.985512 L148.797805,129.985512 L148.799683,129.985512 C151.592341,129.985512 153.85539,127.810634 153.857268,125.124976 L153.857268,116.874878 C153.85539,114.18922 151.59422,112.014341 148.799683,112.014341 L148.799683,112.014341 Z M37.5421951,112.016146 L37.5421951,35.9838537 L116.457805,35.9838537 L116.457805,112.014341 L37.5421951,112.014341 L37.5421951,112.016146 Z" id="Shape"></path>
                </g>
            </g>
        </g>
    </g>
</svg>