<?xml version="1.0" encoding="UTF-8"?>
<svg width="475px" height="475px" viewBox="0 0 475 475" version="1.1" xmlns="http://www.w3.org/2000/svg" xmlns:xlink="http://www.w3.org/1999/xlink">
    <!-- Generator: Sketch 48.1 (47250) - http://www.bohemiancoding.com/sketch -->
    <title>垃圾桶LEFT</title>
    <desc>Created with Sketch.</desc>
    <defs></defs>
    <g id="圆图标" stroke="none" stroke-width="1" fill="none" fill-rule="evenodd">
        <g id="垃圾桶" fill="#FFFFFF">
            <g id="Group">
                <g>
                    <path d="M237.09673,474.322931 C106.458859,474.322931 0.177003802,368.024305 0.177003802,237.36855 C0.177003802,106.703023 106.458859,0.398534351 237.09673,0.398534351 C367.732654,0.398534351 474.01451,106.703023 474.01451,237.36855 C474.01451,368.02626 367.732654,474.322931 237.09673,474.322931 Z M236.984406,414.049538 C334.844644,414.049538 414.176041,335.117588 414.176041,237.750092 C414.176041,140.382597 334.844644,61.4506462 236.984406,61.4506462 C139.124169,61.4506462 59.7927716,140.382597 59.7927716,237.750092 C59.7927716,335.117588 139.124169,414.049538 236.984406,414.049538 Z" id="Combined-Shape" fill-rule="nonzero"></path>
                    <ellipse id="Oval-path" stroke="#979797" fill-opacity="0.4" cx="236.984406" cy="237.750092" rx="177.191635" ry="176.299446"></ellipse>
                    <path d="M342,133 L132,133 L132,120 C132,112.824 137.226667,107 143.666667,107 L330.333333,107 C336.773333,107 342,112.824 342,120 L342,133 Z" id="Shape" fill-rule="nonzero"></path>
                    <path d="M330.333333,367 L143.666667,367 C137.226667,367 132,361.176 132,354 L132,341 L342,341 L342,354 C342,361.176 336.773333,367 330.333333,367 Z" id="Shape" fill-rule="nonzero"></path>
                    <polygon id="Shape" fill-rule="nonzero" points="225 132 248 132 248 339 225 339"></polygon>
                    <polygon id="Shape" fill-rule="nonzero" points="132 211 155 211 155 340 132 340"></polygon>
                    <polygon id="Shape" fill-rule="nonzero" points="319 211 342 211 342 340 319 340"></polygon>
                    <path d="M143,172 C143,179.179702 148.148725,185 154.5,185 C160.851275,185 166,179.179702 166,172 C166,164.820298 160.851275,159 154.5,159 C148.148725,159 143,164.820298 143,172 Z" id="Shape" fill-rule="nonzero"></path>
                    <path d="M307,172 C307,179.179702 312.148725,185 318.5,185 C324.851275,185 330,179.179702 330,172 C330,164.820298 324.851275,159 318.5,159 C312.148725,159 307,164.820298 307,172 Z" id="Shape" fill-rule="nonzero"></path>
                    <path d="M167,275 C167,282.179702 172.148725,288 178.5,288 C184.851275,288 190,282.179702 190,275 C190,267.820298 184.851275,262 178.5,262 C172.148725,262 167,267.820298 167,275 Z" id="Shape" fill-rule="nonzero"></path>
                    <path d="M167,314 C167,321.179702 172.148725,327 178.5,327 C184.851275,327 190,321.179702 190,314 C190,306.820298 184.851275,301 178.5,301 C172.148725,301 167,306.820298 167,314 Z" id="Shape" fill-rule="nonzero"></path>
                    <path d="M191,301 C191,308.179702 196.148725,314 202.5,314 C208.851275,314 214,308.179702 214,301 C214,293.820298 208.851275,288 202.5,288 C196.148725,288 191,293.820298 191,301 Z" id="Shape" fill-rule="nonzero"></path>
                </g>
            </g>
        </g>
    </g>
</svg>